<?xml version="1.0" encoding="utf-8" standalone="no"?>
<!DOCTYPE svg PUBLIC "-//W3C//DTD SVG 1.1//EN"
  "http://www.w3.org/Graphics/SVG/1.1/DTD/svg11.dtd">
<svg height="576pt" version="1.1" viewBox="0 0 936 576" width="936pt" xmlns="http://www.w3.org/2000/svg" xmlns:xlink="http://www.w3.org/1999/xlink">
 <metadata>
  <rdf:RDF xmlns:cc="http://creativecommons.org/ns#" xmlns:dc="http://purl.org/dc/elements/1.1/" xmlns:rdf="http://www.w3.org/1999/02/22-rdf-syntax-ns#">
   <cc:Work>
    <dc:type rdf:resource="http://purl.org/dc/dcmitype/StillImage"/>
    <dc:date>2024-03-27T23:17:32.999858</dc:date>
    <dc:format>image/svg+xml</dc:format>
    <dc:creator>
     <cc:Agent>
      <dc:title>Matplotlib v3.4.3, https://matplotlib.org/</dc:title>
     </cc:Agent>
    </dc:creator>
   </cc:Work>
  </rdf:RDF>
 </metadata>
 <defs>
  <style type="text/css">*{stroke-linecap:butt;stroke-linejoin:round;}</style>
 </defs>
 <g id="figure_1">
  <g id="patch_1">
   <path d="M 0 576 
L 936 576 
L 936 0 
L 0 0 
z
" style="fill:none;"/>
  </g>
  <g id="axes_1">
   <g id="patch_2">
    <path d="M 117 504 
L 842.4 504 
L 842.4 69.12 
L 117 69.12 
z
" style="fill:#ffffff;"/>
   </g>
   <g id="PolyCollection_1">
    <path clip-path="url(#pb04cca7ba6)" d="M 117 298.505085 
L 117 484.232727 
L 141.673469 399.117484 
L 166.346939 354.838159 
L 191.020408 318.583061 
L 215.693878 289.242825 
L 240.367347 261.490437 
L 265.040816 255.552891 
L 289.714286 254.235476 
L 314.387755 252.831089 
L 339.061224 252.616203 
L 363.734694 244.389371 
L 388.408163 234.328746 
L 413.081633 219.615169 
L 437.755102 219.615169 
L 462.428571 217.242349 
L 487.102041 216.118337 
L 511.77551 216.0659 
L 536.44898 216.0659 
L 561.122449 216.0659 
L 585.795918 209.332685 
L 610.469388 207.806666 
L 635.142857 207.806666 
L 659.816327 198.666847 
L 684.489796 198.666847 
L 709.163265 186.670751 
L 733.836735 186.670751 
L 758.510204 186.670751 
L 783.183673 178.161175 
L 807.857143 177.203544 
L 832.530612 176.434246 
L 857.204082 175.815993 
L 881.877551 173.401071 
L 906.55102 172.763573 
L 931.22449 172.200234 
L 955.897959 172.09495 
L 980.571429 172.09495 
L 1005.244898 172.417317 
L 1029.918367 172.417317 
L 1054.591837 172.417317 
L 1079.265306 172.417317 
L 1103.938776 172.417317 
L 1128.612245 172.417317 
L 1153.285714 172.417317 
L 1177.959184 163.432773 
L 1202.632653 163.432773 
L 1227.306122 163.432773 
L 1251.979592 161.655712 
L 1276.653061 161.655712 
L 1301.326531 161.655712 
L 1326 161.655712 
L 1326 126.417914 
L 1326 126.417914 
L 1301.326531 126.417914 
L 1276.653061 126.417914 
L 1251.979592 126.417914 
L 1227.306122 126.472008 
L 1202.632653 126.472008 
L 1177.959184 126.472008 
L 1153.285714 128.318649 
L 1128.612245 128.318649 
L 1103.938776 128.318649 
L 1079.265306 128.318649 
L 1054.591837 128.318649 
L 1029.918367 128.318649 
L 1005.244898 128.318649 
L 980.571429 132.712016 
L 955.897959 132.712016 
L 931.22449 132.920981 
L 906.55102 133.266426 
L 881.877551 133.308295 
L 857.204082 132.982335 
L 832.530612 132.969323 
L 807.857143 135.313538 
L 783.183673 135.589927 
L 758.510204 136.684731 
L 733.836735 136.684731 
L 709.163265 136.684731 
L 684.489796 136.155939 
L 659.816327 136.155939 
L 635.142857 138.380862 
L 610.469388 138.380862 
L 585.795918 138.356322 
L 561.122449 141.323929 
L 536.44898 141.323929 
L 511.77551 141.323929 
L 487.102041 141.349 
L 462.428571 141.294007 
L 437.755102 141.735252 
L 413.081633 141.735252 
L 388.408163 136.18334 
L 363.734694 141.035831 
L 339.061224 139.140472 
L 314.387755 139.56286 
L 289.714286 139.699515 
L 265.040816 147.942009 
L 240.367347 153.641603 
L 215.693878 152.178887 
L 191.020408 171.474675 
L 166.346939 192.179524 
L 141.673469 211.918101 
L 117 298.505085 
z
" style="fill:#ffa500;fill-opacity:0.2;stroke:#ffa500;stroke-opacity:0.2;"/>
   </g>
   <g id="PolyCollection_2">
    <path clip-path="url(#pb04cca7ba6)" d="M 117 153.145347 
L 117 273.22892 
L 141.18 225.021387 
L 165.36 202.003602 
L 189.54 183.796346 
L 213.72 168.211847 
L 237.9 164.802173 
L 262.08 159.364422 
L 286.26 156.198477 
L 310.44 151.925835 
L 334.62 145.917122 
L 358.8 145.322013 
L 382.98 133.757625 
L 407.16 131.173947 
L 431.34 128.44872 
L 455.52 128.195497 
L 479.7 126.84584 
L 503.88 126.84584 
L 528.06 126.84584 
L 552.24 125.883603 
L 576.42 125.883603 
L 600.6 124.918411 
L 624.78 124.918411 
L 648.96 122.382197 
L 673.14 122.382197 
L 697.32 122.382197 
L 721.5 118.350151 
L 745.68 118.350151 
L 769.86 118.350151 
L 794.04 118.350151 
L 818.22 118.350151 
L 842.4 118.350151 
L 866.58 117.888375 
L 890.76 117.888375 
L 914.94 117.888375 
L 939.12 117.888375 
L 963.3 117.888375 
L 987.48 117.888375 
L 1011.66 117.888375 
L 1035.84 117.888375 
L 1060.02 117.888375 
L 1084.2 117.888375 
L 1108.38 117.888375 
L 1132.56 117.888375 
L 1156.74 117.888375 
L 1180.92 117.888375 
L 1205.1 117.888375 
L 1229.28 117.888375 
L 1253.46 117.888375 
L 1277.64 117.888375 
L 1301.82 117.888375 
L 1326 117.888375 
L 1326 89.031144 
L 1326 89.031144 
L 1301.82 89.031144 
L 1277.64 89.031144 
L 1253.46 89.031144 
L 1229.28 89.031144 
L 1205.1 89.031144 
L 1180.92 89.031144 
L 1156.74 89.031144 
L 1132.56 89.031144 
L 1108.38 89.031144 
L 1084.2 89.031144 
L 1060.02 89.031144 
L 1035.84 89.031144 
L 1011.66 89.031144 
L 987.48 89.031144 
L 963.3 89.031144 
L 939.12 89.031144 
L 914.94 89.031144 
L 890.76 89.031144 
L 866.58 89.031144 
L 842.4 89.682386 
L 818.22 89.682386 
L 794.04 89.682386 
L 769.86 89.682386 
L 745.68 89.682386 
L 721.5 89.682386 
L 697.32 90.058373 
L 673.14 90.058373 
L 648.96 90.058373 
L 624.78 90.299663 
L 600.6 90.299663 
L 576.42 92.673526 
L 552.24 92.673526 
L 528.06 93.341817 
L 503.88 93.341817 
L 479.7 93.341817 
L 455.52 92.898663 
L 431.34 93.758459 
L 407.16 94.2203 
L 382.98 94.830622 
L 358.8 99.517609 
L 334.62 99.351481 
L 310.44 100.858138 
L 286.26 105.996474 
L 262.08 107.899691 
L 237.9 114.886752 
L 213.72 118.51963 
L 189.54 118.809924 
L 165.36 134.787712 
L 141.18 140.710111 
L 117 153.145347 
z
" style="fill:#0000ff;fill-opacity:0.2;stroke:#0000ff;stroke-opacity:0.2;"/>
   </g>
   <g id="PolyCollection_3">
    <path clip-path="url(#pb04cca7ba6)" d="M 117 151.324683 
L 117 275.350688 
L 141.18 239.910203 
L 165.36 220.474346 
L 189.54 194.709524 
L 213.72 187.670239 
L 237.9 181.534001 
L 262.08 171.728474 
L 286.26 163.044052 
L 310.44 155.379022 
L 334.62 152.830099 
L 358.8 145.190075 
L 382.98 144.676388 
L 407.16 143.606068 
L 431.34 143.429347 
L 455.52 140.809605 
L 479.7 132.731941 
L 503.88 128.452274 
L 528.06 127.318803 
L 552.24 127.046161 
L 576.42 127.046161 
L 600.6 127.046161 
L 624.78 127.046161 
L 648.96 126.751294 
L 673.14 126.072537 
L 697.32 125.248228 
L 721.5 122.752503 
L 745.68 118.798047 
L 769.86 115.18039 
L 794.04 111.458241 
L 818.22 111.458241 
L 842.4 110.781093 
L 866.58 110.224431 
L 890.76 109.6341 
L 914.94 109.6341 
L 939.12 109.6341 
L 963.3 104.164395 
L 987.48 104.164395 
L 1011.66 103.326906 
L 1035.84 103.326906 
L 1060.02 103.326906 
L 1084.2 103.326906 
L 1108.38 103.326906 
L 1132.56 103.326906 
L 1156.74 103.326906 
L 1180.92 103.326906 
L 1205.1 103.326906 
L 1229.28 103.326906 
L 1253.46 103.326906 
L 1277.64 103.326906 
L 1301.82 103.326906 
L 1326 103.326906 
L 1326 93.687884 
L 1326 93.687884 
L 1301.82 93.687884 
L 1277.64 93.687884 
L 1253.46 93.687884 
L 1229.28 93.687884 
L 1205.1 93.687884 
L 1180.92 93.687884 
L 1156.74 93.687884 
L 1132.56 93.687884 
L 1108.38 93.687884 
L 1084.2 93.687884 
L 1060.02 93.687884 
L 1035.84 93.687884 
L 1011.66 93.687884 
L 987.48 93.963413 
L 963.3 93.963413 
L 939.12 91.271212 
L 914.94 91.271212 
L 890.76 91.271212 
L 866.58 91.793899 
L 842.4 92.350256 
L 818.22 91.965367 
L 794.04 91.965367 
L 769.86 91.020722 
L 745.68 91.293588 
L 721.5 91.747165 
L 697.32 92.028944 
L 673.14 91.812559 
L 648.96 91.651312 
L 624.78 92.469463 
L 600.6 92.469463 
L 576.42 92.469463 
L 552.24 92.469463 
L 528.06 93.309839 
L 503.88 94.919915 
L 479.7 96.047223 
L 455.52 100.347732 
L 431.34 101.741005 
L 407.16 101.740913 
L 382.98 101.635527 
L 358.8 101.538336 
L 334.62 106.457275 
L 310.44 108.219491 
L 286.26 115.141283 
L 262.08 119.031062 
L 237.9 119.724716 
L 213.72 121.024708 
L 189.54 125.284847 
L 165.36 130.089691 
L 141.18 137.293176 
L 117 151.324683 
z
" style="fill:#008000;fill-opacity:0.2;stroke:#008000;stroke-opacity:0.2;"/>
   </g>
   <g id="PolyCollection_4">
    <path clip-path="url(#pb04cca7ba6)" d="M 117 151.324683 
L 117 275.350688 
L 141.18 232.815607 
L 165.36 224.415745 
L 189.54 210.881419 
L 213.72 207.981212 
L 237.9 192.581056 
L 262.08 179.893203 
L 286.26 172.651521 
L 310.44 167.491175 
L 334.62 165.126303 
L 358.8 159.93492 
L 382.98 158.309333 
L 407.16 157.74209 
L 431.34 153.582396 
L 455.52 152.645552 
L 479.7 152.346346 
L 503.88 149.491864 
L 528.06 147.186875 
L 552.24 145.200851 
L 576.42 143.361497 
L 600.6 142.787618 
L 624.78 142.158462 
L 648.96 138.469266 
L 673.14 138.469266 
L 697.32 136.740831 
L 721.5 135.855632 
L 745.68 131.190611 
L 769.86 131.08122 
L 794.04 129.715496 
L 818.22 129.445313 
L 842.4 128.432381 
L 866.58 125.150075 
L 890.76 124.801775 
L 914.94 122.255081 
L 939.12 122.255081 
L 963.3 122.255081 
L 987.48 118.648143 
L 1011.66 118.648143 
L 1035.84 118.648143 
L 1060.02 118.648143 
L 1084.2 118.202947 
L 1108.38 118.202947 
L 1132.56 117.735438 
L 1156.74 117.735438 
L 1180.92 117.735438 
L 1205.1 117.735438 
L 1229.28 117.735438 
L 1253.46 117.735438 
L 1277.64 117.735438 
L 1301.82 117.735438 
L 1326 117.735438 
L 1326 88.887273 
L 1326 88.887273 
L 1301.82 88.887273 
L 1277.64 88.887273 
L 1253.46 88.887273 
L 1229.28 88.887273 
L 1205.1 88.887273 
L 1180.92 88.887273 
L 1156.74 88.887273 
L 1132.56 88.887273 
L 1108.38 89.532782 
L 1084.2 89.532782 
L 1060.02 90.200605 
L 1035.84 90.200605 
L 1011.66 90.200605 
L 987.48 90.200605 
L 963.3 89.888681 
L 939.12 89.888681 
L 914.94 89.888681 
L 890.76 90.119491 
L 866.58 90.884209 
L 842.4 92.009936 
L 818.22 91.79962 
L 794.04 92.642456 
L 769.86 92.284242 
L 745.68 92.250474 
L 721.5 94.861403 
L 697.32 94.716671 
L 673.14 94.470679 
L 648.96 94.470679 
L 624.78 96.929624 
L 600.6 97.829981 
L 576.42 97.679062 
L 552.24 97.454239 
L 528.06 99.793321 
L 503.88 101.313545 
L 479.7 104.026776 
L 455.52 106.376566 
L 431.34 106.461743 
L 407.16 109.200003 
L 382.98 109.072544 
L 358.8 112.799575 
L 334.62 121.059242 
L 310.44 123.985816 
L 286.26 126.09236 
L 262.08 127.557146 
L 237.9 125.553491 
L 213.72 125.186687 
L 189.54 129.080183 
L 165.36 135.804738 
L 141.18 137.069629 
L 117 151.324683 
z
" style="fill:#ff0000;fill-opacity:0.2;stroke:#ff0000;stroke-opacity:0.2;"/>
   </g>
   <g id="PolyCollection_5">
    <path clip-path="url(#pb04cca7ba6)" d="M 117 151.324683 
L 117 275.350688 
L 141.18 240.367518 
L 165.36 220.213349 
L 189.54 203.267613 
L 213.72 187.577224 
L 237.9 184.736882 
L 262.08 172.564915 
L 286.26 170.205678 
L 310.44 162.527913 
L 334.62 158.64373 
L 358.8 157.60119 
L 382.98 154.584201 
L 407.16 151.735798 
L 431.34 150.773339 
L 455.52 149.742715 
L 479.7 148.954533 
L 503.88 147.48216 
L 528.06 146.715263 
L 552.24 145.298303 
L 576.42 145.298303 
L 600.6 145.298303 
L 624.78 145.298303 
L 648.96 144.487777 
L 673.14 144.487777 
L 697.32 144.487777 
L 721.5 144.487777 
L 745.68 144.487777 
L 769.86 144.487777 
L 794.04 144.487777 
L 818.22 141.858451 
L 842.4 141.407118 
L 866.58 141.407118 
L 890.76 141.407118 
L 914.94 141.407118 
L 939.12 141.407118 
L 963.3 140.949654 
L 987.48 140.949654 
L 1011.66 140.949654 
L 1035.84 140.949654 
L 1060.02 140.949654 
L 1084.2 140.949654 
L 1108.38 140.485843 
L 1132.56 138.570658 
L 1156.74 137.225775 
L 1180.92 137.225775 
L 1205.1 137.225775 
L 1229.28 137.225775 
L 1253.46 136.704309 
L 1277.64 136.704309 
L 1301.82 136.704309 
L 1326 136.704309 
L 1326 103.925213 
L 1326 103.925213 
L 1301.82 103.925213 
L 1277.64 103.925213 
L 1253.46 103.925213 
L 1229.28 103.921257 
L 1205.1 103.921257 
L 1180.92 103.921257 
L 1156.74 103.921257 
L 1132.56 105.353879 
L 1108.38 106.958958 
L 1084.2 107.012657 
L 1060.02 107.012657 
L 1035.84 107.012657 
L 1011.66 107.012657 
L 987.48 107.012657 
L 963.3 107.012657 
L 939.12 107.072703 
L 914.94 107.072703 
L 890.76 107.072703 
L 866.58 107.072703 
L 842.4 107.072703 
L 818.22 107.13888 
L 794.04 106.779675 
L 769.86 106.779675 
L 745.68 106.779675 
L 721.5 106.779675 
L 697.32 106.779675 
L 673.14 106.779675 
L 648.96 106.779675 
L 624.78 106.800031 
L 600.6 106.800031 
L 576.42 106.800031 
L 552.24 106.800031 
L 528.06 108.768499 
L 503.88 108.81769 
L 479.7 110.898808 
L 455.52 111.017129 
L 431.34 113.371934 
L 407.16 113.50461 
L 382.98 113.752388 
L 358.8 114.08722 
L 334.62 114.010776 
L 310.44 121.323847 
L 286.26 121.648865 
L 262.08 126.070755 
L 237.9 124.041813 
L 213.72 124.981861 
L 189.54 127.815682 
L 165.36 133.487786 
L 141.18 138.301201 
L 117 151.324683 
z
" style="fill:#800080;fill-opacity:0.2;stroke:#800080;stroke-opacity:0.2;"/>
   </g>
   <g id="matplotlib.axis_1">
    <g id="xtick_1">
     <g id="line2d_1">
      <defs>
       <path d="M 0 0 
L 0 3.5 
" id="m3c8d57b557" style="stroke:#000000;stroke-width:0.8;"/>
      </defs>
      <g>
       <use style="stroke:#000000;stroke-width:0.8;" x="117" xlink:href="#m3c8d57b557" y="504"/>
      </g>
     </g>
     <g id="text_1">
      <!-- 0 -->
      <g transform="translate(112.54625 521.637812)scale(0.14 -0.14)">
       <defs>
        <path d="M 2034 4250 
Q 1547 4250 1301 3770 
Q 1056 3291 1056 2328 
Q 1056 1369 1301 889 
Q 1547 409 2034 409 
Q 2525 409 2770 889 
Q 3016 1369 3016 2328 
Q 3016 3291 2770 3770 
Q 2525 4250 2034 4250 
z
M 2034 4750 
Q 2819 4750 3233 4129 
Q 3647 3509 3647 2328 
Q 3647 1150 3233 529 
Q 2819 -91 2034 -91 
Q 1250 -91 836 529 
Q 422 1150 422 2328 
Q 422 3509 836 4129 
Q 1250 4750 2034 4750 
z
" id="DejaVuSans-30" transform="scale(0.015625)"/>
       </defs>
       <use xlink:href="#DejaVuSans-30"/>
      </g>
     </g>
    </g>
    <g id="xtick_2">
     <g id="line2d_2">
      <g>
       <use style="stroke:#000000;stroke-width:0.8;" x="237.9" xlink:href="#m3c8d57b557" y="504"/>
      </g>
     </g>
     <g id="text_2">
      <!-- 5 -->
      <g transform="translate(233.44625 521.637812)scale(0.14 -0.14)">
       <defs>
        <path d="M 691 4666 
L 3169 4666 
L 3169 4134 
L 1269 4134 
L 1269 2991 
Q 1406 3038 1543 3061 
Q 1681 3084 1819 3084 
Q 2600 3084 3056 2656 
Q 3513 2228 3513 1497 
Q 3513 744 3044 326 
Q 2575 -91 1722 -91 
Q 1428 -91 1123 -41 
Q 819 9 494 109 
L 494 744 
Q 775 591 1075 516 
Q 1375 441 1709 441 
Q 2250 441 2565 725 
Q 2881 1009 2881 1497 
Q 2881 1984 2565 2268 
Q 2250 2553 1709 2553 
Q 1456 2553 1204 2497 
Q 953 2441 691 2322 
L 691 4666 
z
" id="DejaVuSans-35" transform="scale(0.015625)"/>
       </defs>
       <use xlink:href="#DejaVuSans-35"/>
      </g>
     </g>
    </g>
    <g id="xtick_3">
     <g id="line2d_3">
      <g>
       <use style="stroke:#000000;stroke-width:0.8;" x="358.8" xlink:href="#m3c8d57b557" y="504"/>
      </g>
     </g>
     <g id="text_3">
      <!-- 10 -->
      <g transform="translate(349.8925 521.637812)scale(0.14 -0.14)">
       <defs>
        <path d="M 794 531 
L 1825 531 
L 1825 4091 
L 703 3866 
L 703 4441 
L 1819 4666 
L 2450 4666 
L 2450 531 
L 3481 531 
L 3481 0 
L 794 0 
L 794 531 
z
" id="DejaVuSans-31" transform="scale(0.015625)"/>
       </defs>
       <use xlink:href="#DejaVuSans-31"/>
       <use x="63.623047" xlink:href="#DejaVuSans-30"/>
      </g>
     </g>
    </g>
    <g id="xtick_4">
     <g id="line2d_4">
      <g>
       <use style="stroke:#000000;stroke-width:0.8;" x="479.7" xlink:href="#m3c8d57b557" y="504"/>
      </g>
     </g>
     <g id="text_4">
      <!-- 15 -->
      <g transform="translate(470.7925 521.637812)scale(0.14 -0.14)">
       <use xlink:href="#DejaVuSans-31"/>
       <use x="63.623047" xlink:href="#DejaVuSans-35"/>
      </g>
     </g>
    </g>
    <g id="xtick_5">
     <g id="line2d_5">
      <g>
       <use style="stroke:#000000;stroke-width:0.8;" x="600.6" xlink:href="#m3c8d57b557" y="504"/>
      </g>
     </g>
     <g id="text_5">
      <!-- 20 -->
      <g transform="translate(591.6925 521.637812)scale(0.14 -0.14)">
       <defs>
        <path d="M 1228 531 
L 3431 531 
L 3431 0 
L 469 0 
L 469 531 
Q 828 903 1448 1529 
Q 2069 2156 2228 2338 
Q 2531 2678 2651 2914 
Q 2772 3150 2772 3378 
Q 2772 3750 2511 3984 
Q 2250 4219 1831 4219 
Q 1534 4219 1204 4116 
Q 875 4013 500 3803 
L 500 4441 
Q 881 4594 1212 4672 
Q 1544 4750 1819 4750 
Q 2544 4750 2975 4387 
Q 3406 4025 3406 3419 
Q 3406 3131 3298 2873 
Q 3191 2616 2906 2266 
Q 2828 2175 2409 1742 
Q 1991 1309 1228 531 
z
" id="DejaVuSans-32" transform="scale(0.015625)"/>
       </defs>
       <use xlink:href="#DejaVuSans-32"/>
       <use x="63.623047" xlink:href="#DejaVuSans-30"/>
      </g>
     </g>
    </g>
    <g id="xtick_6">
     <g id="line2d_6">
      <g>
       <use style="stroke:#000000;stroke-width:0.8;" x="721.5" xlink:href="#m3c8d57b557" y="504"/>
      </g>
     </g>
     <g id="text_6">
      <!-- 25 -->
      <g transform="translate(712.5925 521.637812)scale(0.14 -0.14)">
       <use xlink:href="#DejaVuSans-32"/>
       <use x="63.623047" xlink:href="#DejaVuSans-35"/>
      </g>
     </g>
    </g>
    <g id="xtick_7">
     <g id="line2d_7">
      <g>
       <use style="stroke:#000000;stroke-width:0.8;" x="842.4" xlink:href="#m3c8d57b557" y="504"/>
      </g>
     </g>
     <g id="text_7">
      <!-- 30 -->
      <g transform="translate(833.4925 521.637812)scale(0.14 -0.14)">
       <defs>
        <path d="M 2597 2516 
Q 3050 2419 3304 2112 
Q 3559 1806 3559 1356 
Q 3559 666 3084 287 
Q 2609 -91 1734 -91 
Q 1441 -91 1130 -33 
Q 819 25 488 141 
L 488 750 
Q 750 597 1062 519 
Q 1375 441 1716 441 
Q 2309 441 2620 675 
Q 2931 909 2931 1356 
Q 2931 1769 2642 2001 
Q 2353 2234 1838 2234 
L 1294 2234 
L 1294 2753 
L 1863 2753 
Q 2328 2753 2575 2939 
Q 2822 3125 2822 3475 
Q 2822 3834 2567 4026 
Q 2313 4219 1838 4219 
Q 1578 4219 1281 4162 
Q 984 4106 628 3988 
L 628 4550 
Q 988 4650 1302 4700 
Q 1616 4750 1894 4750 
Q 2613 4750 3031 4423 
Q 3450 4097 3450 3541 
Q 3450 3153 3228 2886 
Q 3006 2619 2597 2516 
z
" id="DejaVuSans-33" transform="scale(0.015625)"/>
       </defs>
       <use xlink:href="#DejaVuSans-33"/>
       <use x="63.623047" xlink:href="#DejaVuSans-30"/>
      </g>
     </g>
    </g>
    <g id="text_8">
     <!-- n_iterations -->
     <g transform="translate(438.545469 539.187188)scale(0.14 -0.14)">
      <defs>
       <path d="M 3513 2113 
L 3513 0 
L 2938 0 
L 2938 2094 
Q 2938 2591 2744 2837 
Q 2550 3084 2163 3084 
Q 1697 3084 1428 2787 
Q 1159 2491 1159 1978 
L 1159 0 
L 581 0 
L 581 3500 
L 1159 3500 
L 1159 2956 
Q 1366 3272 1645 3428 
Q 1925 3584 2291 3584 
Q 2894 3584 3203 3211 
Q 3513 2838 3513 2113 
z
" id="DejaVuSans-6e" transform="scale(0.015625)"/>
       <path d="M 3263 -1063 
L 3263 -1509 
L -63 -1509 
L -63 -1063 
L 3263 -1063 
z
" id="DejaVuSans-5f" transform="scale(0.015625)"/>
       <path d="M 603 3500 
L 1178 3500 
L 1178 0 
L 603 0 
L 603 3500 
z
M 603 4863 
L 1178 4863 
L 1178 4134 
L 603 4134 
L 603 4863 
z
" id="DejaVuSans-69" transform="scale(0.015625)"/>
       <path d="M 1172 4494 
L 1172 3500 
L 2356 3500 
L 2356 3053 
L 1172 3053 
L 1172 1153 
Q 1172 725 1289 603 
Q 1406 481 1766 481 
L 2356 481 
L 2356 0 
L 1766 0 
Q 1100 0 847 248 
Q 594 497 594 1153 
L 594 3053 
L 172 3053 
L 172 3500 
L 594 3500 
L 594 4494 
L 1172 4494 
z
" id="DejaVuSans-74" transform="scale(0.015625)"/>
       <path d="M 3597 1894 
L 3597 1613 
L 953 1613 
Q 991 1019 1311 708 
Q 1631 397 2203 397 
Q 2534 397 2845 478 
Q 3156 559 3463 722 
L 3463 178 
Q 3153 47 2828 -22 
Q 2503 -91 2169 -91 
Q 1331 -91 842 396 
Q 353 884 353 1716 
Q 353 2575 817 3079 
Q 1281 3584 2069 3584 
Q 2775 3584 3186 3129 
Q 3597 2675 3597 1894 
z
M 3022 2063 
Q 3016 2534 2758 2815 
Q 2500 3097 2075 3097 
Q 1594 3097 1305 2825 
Q 1016 2553 972 2059 
L 3022 2063 
z
" id="DejaVuSans-65" transform="scale(0.015625)"/>
       <path d="M 2631 2963 
Q 2534 3019 2420 3045 
Q 2306 3072 2169 3072 
Q 1681 3072 1420 2755 
Q 1159 2438 1159 1844 
L 1159 0 
L 581 0 
L 581 3500 
L 1159 3500 
L 1159 2956 
Q 1341 3275 1631 3429 
Q 1922 3584 2338 3584 
Q 2397 3584 2469 3576 
Q 2541 3569 2628 3553 
L 2631 2963 
z
" id="DejaVuSans-72" transform="scale(0.015625)"/>
       <path d="M 2194 1759 
Q 1497 1759 1228 1600 
Q 959 1441 959 1056 
Q 959 750 1161 570 
Q 1363 391 1709 391 
Q 2188 391 2477 730 
Q 2766 1069 2766 1631 
L 2766 1759 
L 2194 1759 
z
M 3341 1997 
L 3341 0 
L 2766 0 
L 2766 531 
Q 2569 213 2275 61 
Q 1981 -91 1556 -91 
Q 1019 -91 701 211 
Q 384 513 384 1019 
Q 384 1609 779 1909 
Q 1175 2209 1959 2209 
L 2766 2209 
L 2766 2266 
Q 2766 2663 2505 2880 
Q 2244 3097 1772 3097 
Q 1472 3097 1187 3025 
Q 903 2953 641 2809 
L 641 3341 
Q 956 3463 1253 3523 
Q 1550 3584 1831 3584 
Q 2591 3584 2966 3190 
Q 3341 2797 3341 1997 
z
" id="DejaVuSans-61" transform="scale(0.015625)"/>
       <path d="M 1959 3097 
Q 1497 3097 1228 2736 
Q 959 2375 959 1747 
Q 959 1119 1226 758 
Q 1494 397 1959 397 
Q 2419 397 2687 759 
Q 2956 1122 2956 1747 
Q 2956 2369 2687 2733 
Q 2419 3097 1959 3097 
z
M 1959 3584 
Q 2709 3584 3137 3096 
Q 3566 2609 3566 1747 
Q 3566 888 3137 398 
Q 2709 -91 1959 -91 
Q 1206 -91 779 398 
Q 353 888 353 1747 
Q 353 2609 779 3096 
Q 1206 3584 1959 3584 
z
" id="DejaVuSans-6f" transform="scale(0.015625)"/>
       <path d="M 2834 3397 
L 2834 2853 
Q 2591 2978 2328 3040 
Q 2066 3103 1784 3103 
Q 1356 3103 1142 2972 
Q 928 2841 928 2578 
Q 928 2378 1081 2264 
Q 1234 2150 1697 2047 
L 1894 2003 
Q 2506 1872 2764 1633 
Q 3022 1394 3022 966 
Q 3022 478 2636 193 
Q 2250 -91 1575 -91 
Q 1294 -91 989 -36 
Q 684 19 347 128 
L 347 722 
Q 666 556 975 473 
Q 1284 391 1588 391 
Q 1994 391 2212 530 
Q 2431 669 2431 922 
Q 2431 1156 2273 1281 
Q 2116 1406 1581 1522 
L 1381 1569 
Q 847 1681 609 1914 
Q 372 2147 372 2553 
Q 372 3047 722 3315 
Q 1072 3584 1716 3584 
Q 2034 3584 2315 3537 
Q 2597 3491 2834 3397 
z
" id="DejaVuSans-73" transform="scale(0.015625)"/>
      </defs>
      <use xlink:href="#DejaVuSans-6e"/>
      <use x="63.378906" xlink:href="#DejaVuSans-5f"/>
      <use x="113.378906" xlink:href="#DejaVuSans-69"/>
      <use x="141.162109" xlink:href="#DejaVuSans-74"/>
      <use x="180.371094" xlink:href="#DejaVuSans-65"/>
      <use x="241.894531" xlink:href="#DejaVuSans-72"/>
      <use x="283.007812" xlink:href="#DejaVuSans-61"/>
      <use x="344.287109" xlink:href="#DejaVuSans-74"/>
      <use x="383.496094" xlink:href="#DejaVuSans-69"/>
      <use x="411.279297" xlink:href="#DejaVuSans-6f"/>
      <use x="472.460938" xlink:href="#DejaVuSans-6e"/>
      <use x="535.839844" xlink:href="#DejaVuSans-73"/>
     </g>
    </g>
   </g>
   <g id="matplotlib.axis_2">
    <g id="ytick_1">
     <g id="line2d_8">
      <defs>
       <path d="M 0 0 
L -3.5 0 
" id="m9a89517ce7" style="stroke:#000000;stroke-width:0.8;"/>
      </defs>
      <g>
       <use style="stroke:#000000;stroke-width:0.8;" x="117" xlink:href="#m9a89517ce7" y="475.488593"/>
      </g>
     </g>
     <g id="text_9">
      <!-- 50 -->
      <g transform="translate(92.185 480.8075)scale(0.14 -0.14)">
       <use xlink:href="#DejaVuSans-35"/>
       <use x="63.623047" xlink:href="#DejaVuSans-30"/>
      </g>
     </g>
    </g>
    <g id="ytick_2">
     <g id="line2d_9">
      <g>
       <use style="stroke:#000000;stroke-width:0.8;" x="117" xlink:href="#m9a89517ce7" y="384.1131"/>
      </g>
     </g>
     <g id="text_10">
      <!-- 60 -->
      <g transform="translate(92.185 389.432007)scale(0.14 -0.14)">
       <defs>
        <path d="M 2113 2584 
Q 1688 2584 1439 2293 
Q 1191 2003 1191 1497 
Q 1191 994 1439 701 
Q 1688 409 2113 409 
Q 2538 409 2786 701 
Q 3034 994 3034 1497 
Q 3034 2003 2786 2293 
Q 2538 2584 2113 2584 
z
M 3366 4563 
L 3366 3988 
Q 3128 4100 2886 4159 
Q 2644 4219 2406 4219 
Q 1781 4219 1451 3797 
Q 1122 3375 1075 2522 
Q 1259 2794 1537 2939 
Q 1816 3084 2150 3084 
Q 2853 3084 3261 2657 
Q 3669 2231 3669 1497 
Q 3669 778 3244 343 
Q 2819 -91 2113 -91 
Q 1303 -91 875 529 
Q 447 1150 447 2328 
Q 447 3434 972 4092 
Q 1497 4750 2381 4750 
Q 2619 4750 2861 4703 
Q 3103 4656 3366 4563 
z
" id="DejaVuSans-36" transform="scale(0.015625)"/>
       </defs>
       <use xlink:href="#DejaVuSans-36"/>
       <use x="63.623047" xlink:href="#DejaVuSans-30"/>
      </g>
     </g>
    </g>
    <g id="ytick_3">
     <g id="line2d_10">
      <g>
       <use style="stroke:#000000;stroke-width:0.8;" x="117" xlink:href="#m9a89517ce7" y="292.737607"/>
      </g>
     </g>
     <g id="text_11">
      <!-- 70 -->
      <g transform="translate(92.185 298.056513)scale(0.14 -0.14)">
       <defs>
        <path d="M 525 4666 
L 3525 4666 
L 3525 4397 
L 1831 0 
L 1172 0 
L 2766 4134 
L 525 4134 
L 525 4666 
z
" id="DejaVuSans-37" transform="scale(0.015625)"/>
       </defs>
       <use xlink:href="#DejaVuSans-37"/>
       <use x="63.623047" xlink:href="#DejaVuSans-30"/>
      </g>
     </g>
    </g>
    <g id="ytick_4">
     <g id="line2d_11">
      <g>
       <use style="stroke:#000000;stroke-width:0.8;" x="117" xlink:href="#m9a89517ce7" y="201.362114"/>
      </g>
     </g>
     <g id="text_12">
      <!-- 80 -->
      <g transform="translate(92.185 206.68102)scale(0.14 -0.14)">
       <defs>
        <path d="M 2034 2216 
Q 1584 2216 1326 1975 
Q 1069 1734 1069 1313 
Q 1069 891 1326 650 
Q 1584 409 2034 409 
Q 2484 409 2743 651 
Q 3003 894 3003 1313 
Q 3003 1734 2745 1975 
Q 2488 2216 2034 2216 
z
M 1403 2484 
Q 997 2584 770 2862 
Q 544 3141 544 3541 
Q 544 4100 942 4425 
Q 1341 4750 2034 4750 
Q 2731 4750 3128 4425 
Q 3525 4100 3525 3541 
Q 3525 3141 3298 2862 
Q 3072 2584 2669 2484 
Q 3125 2378 3379 2068 
Q 3634 1759 3634 1313 
Q 3634 634 3220 271 
Q 2806 -91 2034 -91 
Q 1263 -91 848 271 
Q 434 634 434 1313 
Q 434 1759 690 2068 
Q 947 2378 1403 2484 
z
M 1172 3481 
Q 1172 3119 1398 2916 
Q 1625 2713 2034 2713 
Q 2441 2713 2670 2916 
Q 2900 3119 2900 3481 
Q 2900 3844 2670 4047 
Q 2441 4250 2034 4250 
Q 1625 4250 1398 4047 
Q 1172 3844 1172 3481 
z
" id="DejaVuSans-38" transform="scale(0.015625)"/>
       </defs>
       <use xlink:href="#DejaVuSans-38"/>
       <use x="63.623047" xlink:href="#DejaVuSans-30"/>
      </g>
     </g>
    </g>
    <g id="ytick_5">
     <g id="line2d_12">
      <g>
       <use style="stroke:#000000;stroke-width:0.8;" x="117" xlink:href="#m9a89517ce7" y="109.986621"/>
      </g>
     </g>
     <g id="text_13">
      <!-- 90 -->
      <g transform="translate(92.185 115.305527)scale(0.14 -0.14)">
       <defs>
        <path d="M 703 97 
L 703 672 
Q 941 559 1184 500 
Q 1428 441 1663 441 
Q 2288 441 2617 861 
Q 2947 1281 2994 2138 
Q 2813 1869 2534 1725 
Q 2256 1581 1919 1581 
Q 1219 1581 811 2004 
Q 403 2428 403 3163 
Q 403 3881 828 4315 
Q 1253 4750 1959 4750 
Q 2769 4750 3195 4129 
Q 3622 3509 3622 2328 
Q 3622 1225 3098 567 
Q 2575 -91 1691 -91 
Q 1453 -91 1209 -44 
Q 966 3 703 97 
z
M 1959 2075 
Q 2384 2075 2632 2365 
Q 2881 2656 2881 3163 
Q 2881 3666 2632 3958 
Q 2384 4250 1959 4250 
Q 1534 4250 1286 3958 
Q 1038 3666 1038 3163 
Q 1038 2656 1286 2365 
Q 1534 2075 1959 2075 
z
" id="DejaVuSans-39" transform="scale(0.015625)"/>
       </defs>
       <use xlink:href="#DejaVuSans-39"/>
       <use x="63.623047" xlink:href="#DejaVuSans-30"/>
      </g>
     </g>
    </g>
    <g id="text_14">
     <!-- Best heat transfer coefficient -->
     <g transform="translate(85.273438 388.749063)rotate(-90)scale(0.14 -0.14)">
      <defs>
       <path d="M 1259 2228 
L 1259 519 
L 2272 519 
Q 2781 519 3026 730 
Q 3272 941 3272 1375 
Q 3272 1813 3026 2020 
Q 2781 2228 2272 2228 
L 1259 2228 
z
M 1259 4147 
L 1259 2741 
L 2194 2741 
Q 2656 2741 2882 2914 
Q 3109 3088 3109 3444 
Q 3109 3797 2882 3972 
Q 2656 4147 2194 4147 
L 1259 4147 
z
M 628 4666 
L 2241 4666 
Q 2963 4666 3353 4366 
Q 3744 4066 3744 3513 
Q 3744 3084 3544 2831 
Q 3344 2578 2956 2516 
Q 3422 2416 3680 2098 
Q 3938 1781 3938 1306 
Q 3938 681 3513 340 
Q 3088 0 2303 0 
L 628 0 
L 628 4666 
z
" id="DejaVuSans-42" transform="scale(0.015625)"/>
       <path id="DejaVuSans-20" transform="scale(0.015625)"/>
       <path d="M 3513 2113 
L 3513 0 
L 2938 0 
L 2938 2094 
Q 2938 2591 2744 2837 
Q 2550 3084 2163 3084 
Q 1697 3084 1428 2787 
Q 1159 2491 1159 1978 
L 1159 0 
L 581 0 
L 581 4863 
L 1159 4863 
L 1159 2956 
Q 1366 3272 1645 3428 
Q 1925 3584 2291 3584 
Q 2894 3584 3203 3211 
Q 3513 2838 3513 2113 
z
" id="DejaVuSans-68" transform="scale(0.015625)"/>
       <path d="M 2375 4863 
L 2375 4384 
L 1825 4384 
Q 1516 4384 1395 4259 
Q 1275 4134 1275 3809 
L 1275 3500 
L 2222 3500 
L 2222 3053 
L 1275 3053 
L 1275 0 
L 697 0 
L 697 3053 
L 147 3053 
L 147 3500 
L 697 3500 
L 697 3744 
Q 697 4328 969 4595 
Q 1241 4863 1831 4863 
L 2375 4863 
z
" id="DejaVuSans-66" transform="scale(0.015625)"/>
       <path d="M 3122 3366 
L 3122 2828 
Q 2878 2963 2633 3030 
Q 2388 3097 2138 3097 
Q 1578 3097 1268 2742 
Q 959 2388 959 1747 
Q 959 1106 1268 751 
Q 1578 397 2138 397 
Q 2388 397 2633 464 
Q 2878 531 3122 666 
L 3122 134 
Q 2881 22 2623 -34 
Q 2366 -91 2075 -91 
Q 1284 -91 818 406 
Q 353 903 353 1747 
Q 353 2603 823 3093 
Q 1294 3584 2113 3584 
Q 2378 3584 2631 3529 
Q 2884 3475 3122 3366 
z
" id="DejaVuSans-63" transform="scale(0.015625)"/>
      </defs>
      <use xlink:href="#DejaVuSans-42"/>
      <use x="68.603516" xlink:href="#DejaVuSans-65"/>
      <use x="130.126953" xlink:href="#DejaVuSans-73"/>
      <use x="182.226562" xlink:href="#DejaVuSans-74"/>
      <use x="221.435547" xlink:href="#DejaVuSans-20"/>
      <use x="253.222656" xlink:href="#DejaVuSans-68"/>
      <use x="316.601562" xlink:href="#DejaVuSans-65"/>
      <use x="378.125" xlink:href="#DejaVuSans-61"/>
      <use x="439.404297" xlink:href="#DejaVuSans-74"/>
      <use x="478.613281" xlink:href="#DejaVuSans-20"/>
      <use x="510.400391" xlink:href="#DejaVuSans-74"/>
      <use x="549.609375" xlink:href="#DejaVuSans-72"/>
      <use x="590.722656" xlink:href="#DejaVuSans-61"/>
      <use x="652.001953" xlink:href="#DejaVuSans-6e"/>
      <use x="715.380859" xlink:href="#DejaVuSans-73"/>
      <use x="767.480469" xlink:href="#DejaVuSans-66"/>
      <use x="802.685547" xlink:href="#DejaVuSans-65"/>
      <use x="864.208984" xlink:href="#DejaVuSans-72"/>
      <use x="905.322266" xlink:href="#DejaVuSans-20"/>
      <use x="937.109375" xlink:href="#DejaVuSans-63"/>
      <use x="992.089844" xlink:href="#DejaVuSans-6f"/>
      <use x="1053.271484" xlink:href="#DejaVuSans-65"/>
      <use x="1114.794922" xlink:href="#DejaVuSans-66"/>
      <use x="1150" xlink:href="#DejaVuSans-66"/>
      <use x="1185.205078" xlink:href="#DejaVuSans-69"/>
      <use x="1212.988281" xlink:href="#DejaVuSans-63"/>
      <use x="1267.96875" xlink:href="#DejaVuSans-69"/>
      <use x="1295.751953" xlink:href="#DejaVuSans-65"/>
      <use x="1357.275391" xlink:href="#DejaVuSans-6e"/>
      <use x="1420.654297" xlink:href="#DejaVuSans-74"/>
     </g>
    </g>
   </g>
   <g id="line2d_13">
    <path clip-path="url(#pb04cca7ba6)" d="M 117 391.368906 
L 141.18 305.517792 
L 165.36 273.508841 
L 189.54 245.028868 
L 213.72 220.710856 
L 237.9 207.56602 
L 262.08 201.74745 
L 286.26 196.967496 
L 310.44 196.196974 
L 334.62 195.878337 
L 358.8 192.712601 
L 382.98 185.256043 
L 407.16 180.67521 
L 431.34 180.67521 
L 455.52 179.268178 
L 479.7 178.733668 
L 503.88 178.694914 
L 528.06 178.694914 
L 552.24 178.694914 
L 576.42 173.844503 
L 600.6 173.093764 
L 624.78 173.093764 
L 648.96 167.411393 
L 673.14 167.411393 
L 697.32 161.677741 
L 721.5 161.677741 
L 745.68 161.677741 
L 769.86 156.875551 
L 794.04 156.258541 
L 818.22 154.701784 
L 842.4 154.399164 
L 866.58 153.354683 
L 890.76 153.014999 
L 914.94 152.560608 
L 937 152.417259 
" style="fill:none;stroke:#ffa500;stroke-linecap:square;stroke-width:1.5;"/>
   </g>
   <g id="line2d_14">
    <path clip-path="url(#pb04cca7ba6)" d="M 117 213.187133 
L 141.18 182.865749 
L 165.36 168.395657 
L 189.54 151.303135 
L 213.72 143.365738 
L 237.9 139.844463 
L 262.08 133.632056 
L 286.26 131.097476 
L 310.44 126.391987 
L 334.62 122.634302 
L 358.8 122.419811 
L 382.98 114.294123 
L 407.16 112.697124 
L 431.34 111.103589 
L 455.52 110.54708 
L 479.7 110.093829 
L 503.88 110.093829 
L 528.06 110.093829 
L 552.24 109.278565 
L 576.42 109.278565 
L 600.6 107.609037 
L 624.78 107.609037 
L 648.96 106.220285 
L 673.14 106.220285 
L 697.32 106.220285 
L 721.5 104.016269 
L 745.68 104.016269 
L 769.86 104.016269 
L 794.04 104.016269 
L 818.22 104.016269 
L 842.4 104.016269 
L 866.58 103.45976 
L 890.76 103.45976 
L 914.94 103.45976 
L 937 103.45976 
" style="fill:none;stroke:#0000ff;stroke-linecap:square;stroke-width:1.5;"/>
   </g>
   <g id="line2d_15">
    <path clip-path="url(#pb04cca7ba6)" d="M 117 213.337685 
L 141.18 188.601689 
L 165.36 175.282019 
L 189.54 159.997186 
L 213.72 154.347473 
L 237.9 150.629359 
L 262.08 145.379768 
L 286.26 139.092668 
L 310.44 131.799257 
L 334.62 129.643687 
L 358.8 123.364205 
L 382.98 123.155958 
L 407.16 122.673491 
L 431.34 122.585176 
L 455.52 120.578668 
L 479.7 114.389582 
L 503.88 111.686095 
L 528.06 110.314321 
L 552.24 109.757812 
L 576.42 109.757812 
L 600.6 109.757812 
L 624.78 109.757812 
L 648.96 109.201303 
L 673.14 108.942548 
L 697.32 108.638586 
L 721.5 107.249834 
L 745.68 105.045818 
L 769.86 103.100556 
L 794.04 101.711804 
L 818.22 101.711804 
L 842.4 101.565675 
L 866.58 101.009165 
L 890.76 100.452656 
L 914.94 100.452656 
L 937 100.452656 
" style="fill:none;stroke:#008000;stroke-linecap:square;stroke-width:1.5;"/>
   </g>
   <g id="line2d_16">
    <path clip-path="url(#pb04cca7ba6)" d="M 117 213.337685 
L 141.18 184.942618 
L 165.36 180.110242 
L 189.54 169.980801 
L 213.72 166.583949 
L 237.9 159.067274 
L 262.08 153.725175 
L 286.26 149.37194 
L 310.44 145.738495 
L 334.62 143.092773 
L 358.8 136.367247 
L 382.98 133.690939 
L 407.16 133.471046 
L 431.34 130.02207 
L 455.52 129.511059 
L 479.7 128.186561 
L 503.88 125.402704 
L 528.06 123.490098 
L 552.24 121.327545 
L 576.42 120.52028 
L 600.6 120.3088 
L 624.78 119.544043 
L 648.96 116.469973 
L 673.14 116.469973 
L 697.32 115.728751 
L 721.5 115.358518 
L 745.68 111.720542 
L 769.86 111.682731 
L 794.04 111.178976 
L 818.22 110.622467 
L 842.4 110.221158 
L 866.58 108.017142 
L 890.76 107.460633 
L 914.94 106.071881 
L 937 106.071881 
" style="fill:none;stroke:#ff0000;stroke-linecap:square;stroke-width:1.5;"/>
   </g>
   <g id="line2d_17">
    <path clip-path="url(#pb04cca7ba6)" d="M 117 213.337685 
L 141.18 189.334359 
L 165.36 176.850568 
L 189.54 165.541648 
L 213.72 156.279542 
L 237.9 154.389348 
L 262.08 149.317835 
L 286.26 145.927272 
L 310.44 141.92588 
L 334.62 136.327253 
L 358.8 135.844205 
L 382.98 134.168295 
L 407.16 132.620204 
L 431.34 132.072636 
L 455.52 130.379922 
L 479.7 129.92667 
L 503.88 128.149925 
L 528.06 127.741881 
L 552.24 126.049167 
L 576.42 126.049167 
L 600.6 126.049167 
L 624.78 126.049167 
L 648.96 125.633726 
L 673.14 125.633726 
L 697.32 125.633726 
L 721.5 125.633726 
L 745.68 125.633726 
L 769.86 125.633726 
L 794.04 125.633726 
L 818.22 124.498665 
L 842.4 124.23991 
L 866.58 124.23991 
L 890.76 124.23991 
L 914.94 124.23991 
L 937 124.23991 
" style="fill:none;stroke:#800080;stroke-linecap:square;stroke-width:1.5;"/>
   </g>
   <g id="line2d_18">
    <path clip-path="url(#pb04cca7ba6)" d="M 117 95.724849 
L 141.18 95.724849 
L 165.36 95.724849 
L 189.54 95.724849 
L 213.72 95.724849 
L 237.9 95.724849 
L 262.08 95.724849 
L 286.26 95.724849 
L 310.44 95.724849 
L 334.62 95.724849 
L 358.8 95.724849 
L 382.98 95.724849 
L 407.16 95.724849 
L 431.34 95.724849 
L 455.52 95.724849 
L 479.7 95.724849 
L 503.88 95.724849 
L 528.06 95.724849 
L 552.24 95.724849 
L 576.42 95.724849 
L 600.6 95.724849 
L 624.78 95.724849 
L 648.96 95.724849 
L 673.14 95.724849 
L 697.32 95.724849 
L 721.5 95.724849 
L 745.68 95.724849 
L 769.86 95.724849 
L 794.04 95.724849 
L 818.22 95.724849 
L 842.4 95.724849 
L 866.58 95.724849 
L 890.76 95.724849 
L 914.94 95.724849 
L 937 95.724849 
" style="fill:none;stroke:#ff0000;stroke-dasharray:5.55,2.4;stroke-dashoffset:0;stroke-width:1.5;"/>
   </g>
   <g id="patch_3">
    <path d="M 117 504 
L 117 69.12 
" style="fill:none;stroke:#000000;stroke-linecap:square;stroke-linejoin:miter;stroke-width:0.8;"/>
   </g>
   <g id="patch_4">
    <path d="M 842.4 504 
L 842.4 69.12 
" style="fill:none;stroke:#000000;stroke-linecap:square;stroke-linejoin:miter;stroke-width:0.8;"/>
   </g>
   <g id="patch_5">
    <path d="M 117 504 
L 842.4 504 
" style="fill:none;stroke:#000000;stroke-linecap:square;stroke-linejoin:miter;stroke-width:0.8;"/>
   </g>
   <g id="patch_6">
    <path d="M 117 69.12 
L 842.4 69.12 
" style="fill:none;stroke:#000000;stroke-linecap:square;stroke-linejoin:miter;stroke-width:0.8;"/>
   </g>
  </g>
 </g>
 <defs>
  <clipPath id="pb04cca7ba6">
   <rect height="434.88" width="725.4" x="117" y="69.12"/>
  </clipPath>
 </defs>
</svg>
