<?xml version="1.0" encoding="utf-8" standalone="no"?>
<!DOCTYPE svg PUBLIC "-//W3C//DTD SVG 1.1//EN"
  "http://www.w3.org/Graphics/SVG/1.1/DTD/svg11.dtd">
<svg height="576pt" version="1.1" viewBox="0 0 936 576" width="936pt" xmlns="http://www.w3.org/2000/svg" xmlns:xlink="http://www.w3.org/1999/xlink">
 <metadata>
  <rdf:RDF xmlns:cc="http://creativecommons.org/ns#" xmlns:dc="http://purl.org/dc/elements/1.1/" xmlns:rdf="http://www.w3.org/1999/02/22-rdf-syntax-ns#">
   <cc:Work>
    <dc:type rdf:resource="http://purl.org/dc/dcmitype/StillImage"/>
    <dc:date>2024-03-27T23:17:25.086734</dc:date>
    <dc:format>image/svg+xml</dc:format>
    <dc:creator>
     <cc:Agent>
      <dc:title>Matplotlib v3.4.3, https://matplotlib.org/</dc:title>
     </cc:Agent>
    </dc:creator>
   </cc:Work>
  </rdf:RDF>
 </metadata>
 <defs>
  <style type="text/css">*{stroke-linecap:butt;stroke-linejoin:round;}</style>
 </defs>
 <g id="figure_1">
  <g id="patch_1">
   <path d="M 0 576 
L 936 576 
L 936 0 
L 0 0 
z
" style="fill:none;"/>
  </g>
  <g id="axes_1">
   <g id="patch_2">
    <path d="M 117 504 
L 842.4 504 
L 842.4 69.12 
L 117 69.12 
z
" style="fill:#ffffff;"/>
   </g>
   <g id="PolyCollection_1">
    <path clip-path="url(#pd4ab87776d)" d="M 117 225.129213 
L 117 479.734091 
L 141.18 377.523 
L 165.36 328.719986 
L 189.54 290.116403 
L 213.72 257.07367 
L 237.9 249.844374 
L 262.08 238.315087 
L 286.26 231.602555 
L 310.44 222.543567 
L 334.62 209.80371 
L 358.8 208.54194 
L 382.98 184.02277 
L 407.16 178.544778 
L 431.34 172.766667 
L 455.52 172.229777 
L 479.7 169.368193 
L 503.88 169.368193 
L 528.06 169.368193 
L 552.24 167.328028 
L 576.42 167.328028 
L 600.6 165.281598 
L 624.78 165.281598 
L 648.96 159.904239 
L 673.14 159.904239 
L 697.32 159.904239 
L 721.5 151.355372 
L 745.68 151.355372 
L 769.86 151.355372 
L 794.04 151.355372 
L 818.22 151.355372 
L 842.4 151.355372 
L 866.58 150.3763 
L 890.76 150.3763 
L 914.94 150.3763 
L 939.12 150.3763 
L 963.3 150.3763 
L 987.48 150.3763 
L 1011.66 150.3763 
L 1035.84 150.3763 
L 1060.02 150.3763 
L 1084.2 150.3763 
L 1108.38 150.3763 
L 1132.56 150.3763 
L 1156.74 150.3763 
L 1180.92 150.3763 
L 1205.1 150.3763 
L 1229.28 150.3763 
L 1253.46 150.3763 
L 1277.64 150.3763 
L 1301.82 150.3763 
L 1326 150.3763 
L 1326 89.192314 
L 1326 89.192314 
L 1301.82 89.192314 
L 1277.64 89.192314 
L 1253.46 89.192314 
L 1229.28 89.192314 
L 1205.1 89.192314 
L 1180.92 89.192314 
L 1156.74 89.192314 
L 1132.56 89.192314 
L 1108.38 89.192314 
L 1084.2 89.192314 
L 1060.02 89.192314 
L 1035.84 89.192314 
L 1011.66 89.192314 
L 987.48 89.192314 
L 963.3 89.192314 
L 939.12 89.192314 
L 914.94 89.192314 
L 890.76 89.192314 
L 866.58 89.192314 
L 842.4 90.573097 
L 818.22 90.573097 
L 794.04 90.573097 
L 769.86 90.573097 
L 745.68 90.573097 
L 721.5 90.573097 
L 697.32 91.370275 
L 673.14 91.370275 
L 648.96 91.370275 
L 624.78 91.881866 
L 600.6 91.881866 
L 576.42 96.915004 
L 552.24 96.915004 
L 528.06 98.331934 
L 503.88 98.331934 
L 479.7 98.331934 
L 455.52 97.392346 
L 431.34 99.215311 
L 407.16 100.19452 
L 382.98 101.488543 
L 358.8 111.426039 
L 334.62 111.073809 
L 310.44 114.268269 
L 286.26 125.162727 
L 262.08 129.197986 
L 237.9 144.012168 
L 213.72 151.714706 
L 189.54 152.330196 
L 165.36 186.206793 
L 141.18 198.763646 
L 117 225.129213 
z
" style="fill:#0000ff;fill-opacity:0.2;stroke:#0000ff;stroke-opacity:0.2;"/>
   </g>
   <g id="PolyCollection_2">
    <path clip-path="url(#pd4ab87776d)" d="M 117 221.268987 
L 117 484.232727 
L 141.18 409.090723 
L 165.36 367.882224 
L 189.54 313.254857 
L 213.72 298.329949 
L 237.9 285.319709 
L 262.08 264.529731 
L 286.26 246.116752 
L 310.44 229.86512 
L 334.62 224.460814 
L 358.8 208.262201 
L 382.98 207.173068 
L 407.16 204.903742 
L 431.34 204.529053 
L 455.52 198.974595 
L 479.7 181.848084 
L 503.88 172.774202 
L 528.06 170.370983 
L 552.24 169.792919 
L 576.42 169.792919 
L 600.6 169.792919 
L 624.78 169.792919 
L 648.96 169.167734 
L 673.14 167.728612 
L 697.32 165.980886 
L 721.5 160.689373 
L 745.68 152.305015 
L 769.86 144.634748 
L 794.04 136.742933 
L 818.22 136.742933 
L 842.4 135.307222 
L 866.58 134.126972 
L 890.76 132.875334 
L 914.94 132.875334 
L 939.12 132.875334 
L 963.3 121.278297 
L 987.48 121.278297 
L 1011.66 119.502626 
L 1035.84 119.502626 
L 1060.02 119.502626 
L 1084.2 119.502626 
L 1108.38 119.502626 
L 1132.56 119.502626 
L 1156.74 119.502626 
L 1180.92 119.502626 
L 1205.1 119.502626 
L 1229.28 119.502626 
L 1253.46 119.502626 
L 1277.64 119.502626 
L 1301.82 119.502626 
L 1326 119.502626 
L 1326 99.065676 
L 1326 99.065676 
L 1301.82 99.065676 
L 1277.64 99.065676 
L 1253.46 99.065676 
L 1229.28 99.065676 
L 1205.1 99.065676 
L 1180.92 99.065676 
L 1156.74 99.065676 
L 1132.56 99.065676 
L 1108.38 99.065676 
L 1084.2 99.065676 
L 1060.02 99.065676 
L 1035.84 99.065676 
L 1011.66 99.065676 
L 987.48 99.649861 
L 963.3 99.649861 
L 939.12 93.941774 
L 914.94 93.941774 
L 890.76 93.941774 
L 866.58 95.049992 
L 842.4 96.229597 
L 818.22 95.413543 
L 794.04 95.413543 
L 769.86 93.410678 
L 745.68 93.989216 
L 721.5 94.950904 
L 697.32 95.548341 
L 673.14 95.089554 
L 648.96 94.747673 
L 624.78 96.482343 
L 600.6 96.482343 
L 576.42 96.482343 
L 552.24 96.482343 
L 528.06 98.264134 
L 503.88 101.677867 
L 479.7 104.06802 
L 455.52 113.186091 
L 431.34 116.14015 
L 407.16 116.139955 
L 382.98 115.916513 
L 358.8 115.710445 
L 334.62 126.13973 
L 310.44 129.876036 
L 286.26 144.551831 
L 262.08 152.79906 
L 237.9 154.269767 
L 213.72 157.026049 
L 189.54 166.058527 
L 165.36 176.245905 
L 141.18 191.518954 
L 117 221.268987 
z
" style="fill:#008000;fill-opacity:0.2;stroke:#008000;stroke-opacity:0.2;"/>
   </g>
   <g id="PolyCollection_3">
    <path clip-path="url(#pd4ab87776d)" d="M 117 221.268987 
L 117 484.232727 
L 141.18 394.048545 
L 165.36 376.238898 
L 189.54 347.543005 
L 213.72 341.393899 
L 237.9 308.742015 
L 262.08 281.84084 
L 286.26 266.486802 
L 310.44 255.545679 
L 334.62 250.531605 
L 358.8 239.524674 
L 382.98 236.078056 
L 407.16 234.875368 
L 431.34 226.055859 
L 455.52 224.069533 
L 479.7 223.435147 
L 503.88 217.382987 
L 528.06 212.495878 
L 552.24 208.285049 
L 576.42 204.385196 
L 600.6 203.168439 
L 624.78 201.834483 
L 648.96 194.012538 
L 673.14 194.012538 
L 697.32 190.347855 
L 721.5 188.471031 
L 745.68 178.580108 
L 769.86 178.348175 
L 794.04 175.452525 
L 818.22 174.879675 
L 842.4 172.732025 
L 866.58 165.77278 
L 890.76 165.034302 
L 914.94 159.634724 
L 939.12 159.634724 
L 963.3 159.634724 
L 987.48 151.987183 
L 1011.66 151.987183 
L 1035.84 151.987183 
L 1060.02 151.987183 
L 1084.2 151.043265 
L 1108.38 151.043265 
L 1132.56 150.052039 
L 1156.74 150.052039 
L 1180.92 150.052039 
L 1205.1 150.052039 
L 1229.28 150.052039 
L 1253.46 150.052039 
L 1277.64 150.052039 
L 1301.82 150.052039 
L 1326 150.052039 
L 1326 88.887273 
L 1326 88.887273 
L 1301.82 88.887273 
L 1277.64 88.887273 
L 1253.46 88.887273 
L 1229.28 88.887273 
L 1205.1 88.887273 
L 1180.92 88.887273 
L 1156.74 88.887273 
L 1132.56 88.887273 
L 1108.38 90.255902 
L 1084.2 90.255902 
L 1060.02 91.671839 
L 1035.84 91.671839 
L 1011.66 91.671839 
L 987.48 91.671839 
L 963.3 91.010488 
L 939.12 91.010488 
L 914.94 91.010488 
L 890.76 91.49986 
L 866.58 93.121238 
L 842.4 95.508038 
L 818.22 95.062121 
L 794.04 96.849127 
L 769.86 96.089631 
L 745.68 96.018035 
L 721.5 101.553807 
L 697.32 101.246941 
L 673.14 100.725383 
L 648.96 100.725383 
L 624.78 105.938914 
L 600.6 107.847878 
L 576.42 107.527893 
L 552.24 107.051218 
L 528.06 112.010611 
L 503.88 115.233836 
L 479.7 120.986512 
L 455.52 125.968609 
L 431.34 126.149203 
L 407.16 131.954947 
L 382.98 131.684704 
L 358.8 139.58687 
L 334.62 157.09927 
L 310.44 163.304281 
L 286.26 167.77064 
L 262.08 170.876324 
L 237.9 166.628114 
L 213.72 165.850404 
L 189.54 174.105515 
L 165.36 188.363123 
L 141.18 191.044984 
L 117 221.268987 
z
" style="fill:#ff0000;fill-opacity:0.2;stroke:#ff0000;stroke-opacity:0.2;"/>
   </g>
   <g id="PolyCollection_4">
    <path clip-path="url(#pd4ab87776d)" d="M 117 221.268987 
L 117 484.232727 
L 141.18 410.060337 
L 165.36 367.328851 
L 189.54 331.399981 
L 213.72 298.132737 
L 237.9 292.110557 
L 262.08 266.303178 
L 286.26 261.301051 
L 310.44 245.022417 
L 334.62 236.787054 
L 358.8 234.576628 
L 382.98 228.179917 
L 407.16 222.140645 
L 431.34 220.100009 
L 455.52 217.914849 
L 479.7 216.243722 
L 503.88 213.121951 
L 528.06 211.495952 
L 552.24 208.49167 
L 576.42 208.49167 
L 600.6 208.49167 
L 624.78 208.49167 
L 648.96 206.773169 
L 673.14 206.773169 
L 697.32 206.773169 
L 721.5 206.773169 
L 745.68 206.773169 
L 769.86 206.773169 
L 794.04 206.773169 
L 818.22 201.19839 
L 842.4 200.24146 
L 866.58 200.24146 
L 890.76 200.24146 
L 914.94 200.24146 
L 939.12 200.24146 
L 963.3 199.271532 
L 987.48 199.271532 
L 1011.66 199.271532 
L 1035.84 199.271532 
L 1060.02 199.271532 
L 1084.2 199.271532 
L 1108.38 198.288145 
L 1132.56 194.227511 
L 1156.74 191.376049 
L 1180.92 191.376049 
L 1205.1 191.376049 
L 1229.28 191.376049 
L 1253.46 190.270422 
L 1277.64 190.270422 
L 1301.82 190.270422 
L 1326 190.270422 
L 1326 120.771176 
L 1326 120.771176 
L 1301.82 120.771176 
L 1277.64 120.771176 
L 1253.46 120.771176 
L 1229.28 120.762788 
L 1205.1 120.762788 
L 1180.92 120.762788 
L 1156.74 120.762788 
L 1132.56 123.800277 
L 1108.38 127.203415 
L 1084.2 127.317268 
L 1060.02 127.317268 
L 1035.84 127.317268 
L 1011.66 127.317268 
L 987.48 127.317268 
L 963.3 127.317268 
L 939.12 127.44458 
L 914.94 127.44458 
L 890.76 127.44458 
L 866.58 127.44458 
L 842.4 127.44458 
L 818.22 127.584891 
L 794.04 126.823294 
L 769.86 126.823294 
L 745.68 126.823294 
L 721.5 126.823294 
L 697.32 126.823294 
L 673.14 126.823294 
L 648.96 126.823294 
L 624.78 126.866452 
L 600.6 126.866452 
L 576.42 126.866452 
L 552.24 126.866452 
L 528.06 131.040059 
L 503.88 131.144356 
L 479.7 135.556805 
L 455.52 135.807673 
L 431.34 140.800403 
L 407.16 141.081707 
L 382.98 141.607053 
L 358.8 142.316975 
L 334.62 142.154895 
L 310.44 157.660294 
L 286.26 158.349407 
L 262.08 167.724832 
L 237.9 163.423008 
L 213.72 165.416126 
L 189.54 171.424481 
L 165.36 183.450651 
L 141.18 193.656199 
L 117 221.268987 
z
" style="fill:#800080;fill-opacity:0.2;stroke:#800080;stroke-opacity:0.2;"/>
   </g>
   <g id="matplotlib.axis_1">
    <g id="xtick_1">
     <g id="line2d_1">
      <defs>
       <path d="M 0 0 
L 0 3.5 
" id="mbd898e1355" style="stroke:#000000;stroke-width:0.8;"/>
      </defs>
      <g>
       <use style="stroke:#000000;stroke-width:0.8;" x="117" xlink:href="#mbd898e1355" y="504"/>
      </g>
     </g>
     <g id="text_1">
      <!-- 0 -->
      <g transform="translate(112.54625 521.637812)scale(0.14 -0.14)">
       <defs>
        <path d="M 2034 4250 
Q 1547 4250 1301 3770 
Q 1056 3291 1056 2328 
Q 1056 1369 1301 889 
Q 1547 409 2034 409 
Q 2525 409 2770 889 
Q 3016 1369 3016 2328 
Q 3016 3291 2770 3770 
Q 2525 4250 2034 4250 
z
M 2034 4750 
Q 2819 4750 3233 4129 
Q 3647 3509 3647 2328 
Q 3647 1150 3233 529 
Q 2819 -91 2034 -91 
Q 1250 -91 836 529 
Q 422 1150 422 2328 
Q 422 3509 836 4129 
Q 1250 4750 2034 4750 
z
" id="DejaVuSans-30" transform="scale(0.015625)"/>
       </defs>
       <use xlink:href="#DejaVuSans-30"/>
      </g>
     </g>
    </g>
    <g id="xtick_2">
     <g id="line2d_2">
      <g>
       <use style="stroke:#000000;stroke-width:0.8;" x="237.9" xlink:href="#mbd898e1355" y="504"/>
      </g>
     </g>
     <g id="text_2">
      <!-- 5 -->
      <g transform="translate(233.44625 521.637812)scale(0.14 -0.14)">
       <defs>
        <path d="M 691 4666 
L 3169 4666 
L 3169 4134 
L 1269 4134 
L 1269 2991 
Q 1406 3038 1543 3061 
Q 1681 3084 1819 3084 
Q 2600 3084 3056 2656 
Q 3513 2228 3513 1497 
Q 3513 744 3044 326 
Q 2575 -91 1722 -91 
Q 1428 -91 1123 -41 
Q 819 9 494 109 
L 494 744 
Q 775 591 1075 516 
Q 1375 441 1709 441 
Q 2250 441 2565 725 
Q 2881 1009 2881 1497 
Q 2881 1984 2565 2268 
Q 2250 2553 1709 2553 
Q 1456 2553 1204 2497 
Q 953 2441 691 2322 
L 691 4666 
z
" id="DejaVuSans-35" transform="scale(0.015625)"/>
       </defs>
       <use xlink:href="#DejaVuSans-35"/>
      </g>
     </g>
    </g>
    <g id="xtick_3">
     <g id="line2d_3">
      <g>
       <use style="stroke:#000000;stroke-width:0.8;" x="358.8" xlink:href="#mbd898e1355" y="504"/>
      </g>
     </g>
     <g id="text_3">
      <!-- 10 -->
      <g transform="translate(349.8925 521.637812)scale(0.14 -0.14)">
       <defs>
        <path d="M 794 531 
L 1825 531 
L 1825 4091 
L 703 3866 
L 703 4441 
L 1819 4666 
L 2450 4666 
L 2450 531 
L 3481 531 
L 3481 0 
L 794 0 
L 794 531 
z
" id="DejaVuSans-31" transform="scale(0.015625)"/>
       </defs>
       <use xlink:href="#DejaVuSans-31"/>
       <use x="63.623047" xlink:href="#DejaVuSans-30"/>
      </g>
     </g>
    </g>
    <g id="xtick_4">
     <g id="line2d_4">
      <g>
       <use style="stroke:#000000;stroke-width:0.8;" x="479.7" xlink:href="#mbd898e1355" y="504"/>
      </g>
     </g>
     <g id="text_4">
      <!-- 15 -->
      <g transform="translate(470.7925 521.637812)scale(0.14 -0.14)">
       <use xlink:href="#DejaVuSans-31"/>
       <use x="63.623047" xlink:href="#DejaVuSans-35"/>
      </g>
     </g>
    </g>
    <g id="xtick_5">
     <g id="line2d_5">
      <g>
       <use style="stroke:#000000;stroke-width:0.8;" x="600.6" xlink:href="#mbd898e1355" y="504"/>
      </g>
     </g>
     <g id="text_5">
      <!-- 20 -->
      <g transform="translate(591.6925 521.637812)scale(0.14 -0.14)">
       <defs>
        <path d="M 1228 531 
L 3431 531 
L 3431 0 
L 469 0 
L 469 531 
Q 828 903 1448 1529 
Q 2069 2156 2228 2338 
Q 2531 2678 2651 2914 
Q 2772 3150 2772 3378 
Q 2772 3750 2511 3984 
Q 2250 4219 1831 4219 
Q 1534 4219 1204 4116 
Q 875 4013 500 3803 
L 500 4441 
Q 881 4594 1212 4672 
Q 1544 4750 1819 4750 
Q 2544 4750 2975 4387 
Q 3406 4025 3406 3419 
Q 3406 3131 3298 2873 
Q 3191 2616 2906 2266 
Q 2828 2175 2409 1742 
Q 1991 1309 1228 531 
z
" id="DejaVuSans-32" transform="scale(0.015625)"/>
       </defs>
       <use xlink:href="#DejaVuSans-32"/>
       <use x="63.623047" xlink:href="#DejaVuSans-30"/>
      </g>
     </g>
    </g>
    <g id="xtick_6">
     <g id="line2d_6">
      <g>
       <use style="stroke:#000000;stroke-width:0.8;" x="721.5" xlink:href="#mbd898e1355" y="504"/>
      </g>
     </g>
     <g id="text_6">
      <!-- 25 -->
      <g transform="translate(712.5925 521.637812)scale(0.14 -0.14)">
       <use xlink:href="#DejaVuSans-32"/>
       <use x="63.623047" xlink:href="#DejaVuSans-35"/>
      </g>
     </g>
    </g>
    <g id="xtick_7">
     <g id="line2d_7">
      <g>
       <use style="stroke:#000000;stroke-width:0.8;" x="842.4" xlink:href="#mbd898e1355" y="504"/>
      </g>
     </g>
     <g id="text_7">
      <!-- 30 -->
      <g transform="translate(833.4925 521.637812)scale(0.14 -0.14)">
       <defs>
        <path d="M 2597 2516 
Q 3050 2419 3304 2112 
Q 3559 1806 3559 1356 
Q 3559 666 3084 287 
Q 2609 -91 1734 -91 
Q 1441 -91 1130 -33 
Q 819 25 488 141 
L 488 750 
Q 750 597 1062 519 
Q 1375 441 1716 441 
Q 2309 441 2620 675 
Q 2931 909 2931 1356 
Q 2931 1769 2642 2001 
Q 2353 2234 1838 2234 
L 1294 2234 
L 1294 2753 
L 1863 2753 
Q 2328 2753 2575 2939 
Q 2822 3125 2822 3475 
Q 2822 3834 2567 4026 
Q 2313 4219 1838 4219 
Q 1578 4219 1281 4162 
Q 984 4106 628 3988 
L 628 4550 
Q 988 4650 1302 4700 
Q 1616 4750 1894 4750 
Q 2613 4750 3031 4423 
Q 3450 4097 3450 3541 
Q 3450 3153 3228 2886 
Q 3006 2619 2597 2516 
z
" id="DejaVuSans-33" transform="scale(0.015625)"/>
       </defs>
       <use xlink:href="#DejaVuSans-33"/>
       <use x="63.623047" xlink:href="#DejaVuSans-30"/>
      </g>
     </g>
    </g>
    <g id="text_8">
     <!-- n_iterations -->
     <g transform="translate(438.545469 539.187188)scale(0.14 -0.14)">
      <defs>
       <path d="M 3513 2113 
L 3513 0 
L 2938 0 
L 2938 2094 
Q 2938 2591 2744 2837 
Q 2550 3084 2163 3084 
Q 1697 3084 1428 2787 
Q 1159 2491 1159 1978 
L 1159 0 
L 581 0 
L 581 3500 
L 1159 3500 
L 1159 2956 
Q 1366 3272 1645 3428 
Q 1925 3584 2291 3584 
Q 2894 3584 3203 3211 
Q 3513 2838 3513 2113 
z
" id="DejaVuSans-6e" transform="scale(0.015625)"/>
       <path d="M 3263 -1063 
L 3263 -1509 
L -63 -1509 
L -63 -1063 
L 3263 -1063 
z
" id="DejaVuSans-5f" transform="scale(0.015625)"/>
       <path d="M 603 3500 
L 1178 3500 
L 1178 0 
L 603 0 
L 603 3500 
z
M 603 4863 
L 1178 4863 
L 1178 4134 
L 603 4134 
L 603 4863 
z
" id="DejaVuSans-69" transform="scale(0.015625)"/>
       <path d="M 1172 4494 
L 1172 3500 
L 2356 3500 
L 2356 3053 
L 1172 3053 
L 1172 1153 
Q 1172 725 1289 603 
Q 1406 481 1766 481 
L 2356 481 
L 2356 0 
L 1766 0 
Q 1100 0 847 248 
Q 594 497 594 1153 
L 594 3053 
L 172 3053 
L 172 3500 
L 594 3500 
L 594 4494 
L 1172 4494 
z
" id="DejaVuSans-74" transform="scale(0.015625)"/>
       <path d="M 3597 1894 
L 3597 1613 
L 953 1613 
Q 991 1019 1311 708 
Q 1631 397 2203 397 
Q 2534 397 2845 478 
Q 3156 559 3463 722 
L 3463 178 
Q 3153 47 2828 -22 
Q 2503 -91 2169 -91 
Q 1331 -91 842 396 
Q 353 884 353 1716 
Q 353 2575 817 3079 
Q 1281 3584 2069 3584 
Q 2775 3584 3186 3129 
Q 3597 2675 3597 1894 
z
M 3022 2063 
Q 3016 2534 2758 2815 
Q 2500 3097 2075 3097 
Q 1594 3097 1305 2825 
Q 1016 2553 972 2059 
L 3022 2063 
z
" id="DejaVuSans-65" transform="scale(0.015625)"/>
       <path d="M 2631 2963 
Q 2534 3019 2420 3045 
Q 2306 3072 2169 3072 
Q 1681 3072 1420 2755 
Q 1159 2438 1159 1844 
L 1159 0 
L 581 0 
L 581 3500 
L 1159 3500 
L 1159 2956 
Q 1341 3275 1631 3429 
Q 1922 3584 2338 3584 
Q 2397 3584 2469 3576 
Q 2541 3569 2628 3553 
L 2631 2963 
z
" id="DejaVuSans-72" transform="scale(0.015625)"/>
       <path d="M 2194 1759 
Q 1497 1759 1228 1600 
Q 959 1441 959 1056 
Q 959 750 1161 570 
Q 1363 391 1709 391 
Q 2188 391 2477 730 
Q 2766 1069 2766 1631 
L 2766 1759 
L 2194 1759 
z
M 3341 1997 
L 3341 0 
L 2766 0 
L 2766 531 
Q 2569 213 2275 61 
Q 1981 -91 1556 -91 
Q 1019 -91 701 211 
Q 384 513 384 1019 
Q 384 1609 779 1909 
Q 1175 2209 1959 2209 
L 2766 2209 
L 2766 2266 
Q 2766 2663 2505 2880 
Q 2244 3097 1772 3097 
Q 1472 3097 1187 3025 
Q 903 2953 641 2809 
L 641 3341 
Q 956 3463 1253 3523 
Q 1550 3584 1831 3584 
Q 2591 3584 2966 3190 
Q 3341 2797 3341 1997 
z
" id="DejaVuSans-61" transform="scale(0.015625)"/>
       <path d="M 1959 3097 
Q 1497 3097 1228 2736 
Q 959 2375 959 1747 
Q 959 1119 1226 758 
Q 1494 397 1959 397 
Q 2419 397 2687 759 
Q 2956 1122 2956 1747 
Q 2956 2369 2687 2733 
Q 2419 3097 1959 3097 
z
M 1959 3584 
Q 2709 3584 3137 3096 
Q 3566 2609 3566 1747 
Q 3566 888 3137 398 
Q 2709 -91 1959 -91 
Q 1206 -91 779 398 
Q 353 888 353 1747 
Q 353 2609 779 3096 
Q 1206 3584 1959 3584 
z
" id="DejaVuSans-6f" transform="scale(0.015625)"/>
       <path d="M 2834 3397 
L 2834 2853 
Q 2591 2978 2328 3040 
Q 2066 3103 1784 3103 
Q 1356 3103 1142 2972 
Q 928 2841 928 2578 
Q 928 2378 1081 2264 
Q 1234 2150 1697 2047 
L 1894 2003 
Q 2506 1872 2764 1633 
Q 3022 1394 3022 966 
Q 3022 478 2636 193 
Q 2250 -91 1575 -91 
Q 1294 -91 989 -36 
Q 684 19 347 128 
L 347 722 
Q 666 556 975 473 
Q 1284 391 1588 391 
Q 1994 391 2212 530 
Q 2431 669 2431 922 
Q 2431 1156 2273 1281 
Q 2116 1406 1581 1522 
L 1381 1569 
Q 847 1681 609 1914 
Q 372 2147 372 2553 
Q 372 3047 722 3315 
Q 1072 3584 1716 3584 
Q 2034 3584 2315 3537 
Q 2597 3491 2834 3397 
z
" id="DejaVuSans-73" transform="scale(0.015625)"/>
      </defs>
      <use xlink:href="#DejaVuSans-6e"/>
      <use x="63.378906" xlink:href="#DejaVuSans-5f"/>
      <use x="113.378906" xlink:href="#DejaVuSans-69"/>
      <use x="141.162109" xlink:href="#DejaVuSans-74"/>
      <use x="180.371094" xlink:href="#DejaVuSans-65"/>
      <use x="241.894531" xlink:href="#DejaVuSans-72"/>
      <use x="283.007812" xlink:href="#DejaVuSans-61"/>
      <use x="344.287109" xlink:href="#DejaVuSans-74"/>
      <use x="383.496094" xlink:href="#DejaVuSans-69"/>
      <use x="411.279297" xlink:href="#DejaVuSans-6f"/>
      <use x="472.460938" xlink:href="#DejaVuSans-6e"/>
      <use x="535.839844" xlink:href="#DejaVuSans-73"/>
     </g>
    </g>
   </g>
   <g id="matplotlib.axis_2">
    <g id="ytick_1">
     <g id="line2d_8">
      <defs>
       <path d="M 0 0 
L -3.5 0 
" id="m579e24dc17" style="stroke:#000000;stroke-width:0.8;"/>
      </defs>
      <g>
       <use style="stroke:#000000;stroke-width:0.8;" x="117" xlink:href="#m579e24dc17" y="472.662727"/>
      </g>
     </g>
     <g id="text_9">
      <!-- 72.5 -->
      <g transform="translate(78.828125 477.981633)scale(0.14 -0.14)">
       <defs>
        <path d="M 525 4666 
L 3525 4666 
L 3525 4397 
L 1831 0 
L 1172 0 
L 2766 4134 
L 525 4134 
L 525 4666 
z
" id="DejaVuSans-37" transform="scale(0.015625)"/>
        <path d="M 684 794 
L 1344 794 
L 1344 0 
L 684 0 
L 684 794 
z
" id="DejaVuSans-2e" transform="scale(0.015625)"/>
       </defs>
       <use xlink:href="#DejaVuSans-37"/>
       <use x="63.623047" xlink:href="#DejaVuSans-32"/>
       <use x="127.246094" xlink:href="#DejaVuSans-2e"/>
       <use x="159.033203" xlink:href="#DejaVuSans-35"/>
      </g>
     </g>
    </g>
    <g id="ytick_2">
     <g id="line2d_9">
      <g>
       <use style="stroke:#000000;stroke-width:0.8;" x="117" xlink:href="#m579e24dc17" y="424.228446"/>
      </g>
     </g>
     <g id="text_10">
      <!-- 75.0 -->
      <g transform="translate(78.828125 429.547352)scale(0.14 -0.14)">
       <use xlink:href="#DejaVuSans-37"/>
       <use x="63.623047" xlink:href="#DejaVuSans-35"/>
       <use x="127.246094" xlink:href="#DejaVuSans-2e"/>
       <use x="159.033203" xlink:href="#DejaVuSans-30"/>
      </g>
     </g>
    </g>
    <g id="ytick_3">
     <g id="line2d_10">
      <g>
       <use style="stroke:#000000;stroke-width:0.8;" x="117" xlink:href="#m579e24dc17" y="375.794164"/>
      </g>
     </g>
     <g id="text_11">
      <!-- 77.5 -->
      <g transform="translate(78.828125 381.113071)scale(0.14 -0.14)">
       <use xlink:href="#DejaVuSans-37"/>
       <use x="63.623047" xlink:href="#DejaVuSans-37"/>
       <use x="127.246094" xlink:href="#DejaVuSans-2e"/>
       <use x="159.033203" xlink:href="#DejaVuSans-35"/>
      </g>
     </g>
    </g>
    <g id="ytick_4">
     <g id="line2d_11">
      <g>
       <use style="stroke:#000000;stroke-width:0.8;" x="117" xlink:href="#m579e24dc17" y="327.359883"/>
      </g>
     </g>
     <g id="text_12">
      <!-- 80.0 -->
      <g transform="translate(78.828125 332.678789)scale(0.14 -0.14)">
       <defs>
        <path d="M 2034 2216 
Q 1584 2216 1326 1975 
Q 1069 1734 1069 1313 
Q 1069 891 1326 650 
Q 1584 409 2034 409 
Q 2484 409 2743 651 
Q 3003 894 3003 1313 
Q 3003 1734 2745 1975 
Q 2488 2216 2034 2216 
z
M 1403 2484 
Q 997 2584 770 2862 
Q 544 3141 544 3541 
Q 544 4100 942 4425 
Q 1341 4750 2034 4750 
Q 2731 4750 3128 4425 
Q 3525 4100 3525 3541 
Q 3525 3141 3298 2862 
Q 3072 2584 2669 2484 
Q 3125 2378 3379 2068 
Q 3634 1759 3634 1313 
Q 3634 634 3220 271 
Q 2806 -91 2034 -91 
Q 1263 -91 848 271 
Q 434 634 434 1313 
Q 434 1759 690 2068 
Q 947 2378 1403 2484 
z
M 1172 3481 
Q 1172 3119 1398 2916 
Q 1625 2713 2034 2713 
Q 2441 2713 2670 2916 
Q 2900 3119 2900 3481 
Q 2900 3844 2670 4047 
Q 2441 4250 2034 4250 
Q 1625 4250 1398 4047 
Q 1172 3844 1172 3481 
z
" id="DejaVuSans-38" transform="scale(0.015625)"/>
       </defs>
       <use xlink:href="#DejaVuSans-38"/>
       <use x="63.623047" xlink:href="#DejaVuSans-30"/>
       <use x="127.246094" xlink:href="#DejaVuSans-2e"/>
       <use x="159.033203" xlink:href="#DejaVuSans-30"/>
      </g>
     </g>
    </g>
    <g id="ytick_5">
     <g id="line2d_12">
      <g>
       <use style="stroke:#000000;stroke-width:0.8;" x="117" xlink:href="#m579e24dc17" y="278.925602"/>
      </g>
     </g>
     <g id="text_13">
      <!-- 82.5 -->
      <g transform="translate(78.828125 284.244508)scale(0.14 -0.14)">
       <use xlink:href="#DejaVuSans-38"/>
       <use x="63.623047" xlink:href="#DejaVuSans-32"/>
       <use x="127.246094" xlink:href="#DejaVuSans-2e"/>
       <use x="159.033203" xlink:href="#DejaVuSans-35"/>
      </g>
     </g>
    </g>
    <g id="ytick_6">
     <g id="line2d_13">
      <g>
       <use style="stroke:#000000;stroke-width:0.8;" x="117" xlink:href="#m579e24dc17" y="230.491321"/>
      </g>
     </g>
     <g id="text_14">
      <!-- 85.0 -->
      <g transform="translate(78.828125 235.810227)scale(0.14 -0.14)">
       <use xlink:href="#DejaVuSans-38"/>
       <use x="63.623047" xlink:href="#DejaVuSans-35"/>
       <use x="127.246094" xlink:href="#DejaVuSans-2e"/>
       <use x="159.033203" xlink:href="#DejaVuSans-30"/>
      </g>
     </g>
    </g>
    <g id="ytick_7">
     <g id="line2d_14">
      <g>
       <use style="stroke:#000000;stroke-width:0.8;" x="117" xlink:href="#m579e24dc17" y="182.05704"/>
      </g>
     </g>
     <g id="text_15">
      <!-- 87.5 -->
      <g transform="translate(78.828125 187.375946)scale(0.14 -0.14)">
       <use xlink:href="#DejaVuSans-38"/>
       <use x="63.623047" xlink:href="#DejaVuSans-37"/>
       <use x="127.246094" xlink:href="#DejaVuSans-2e"/>
       <use x="159.033203" xlink:href="#DejaVuSans-35"/>
      </g>
     </g>
    </g>
    <g id="ytick_8">
     <g id="line2d_15">
      <g>
       <use style="stroke:#000000;stroke-width:0.8;" x="117" xlink:href="#m579e24dc17" y="133.622758"/>
      </g>
     </g>
     <g id="text_16">
      <!-- 90.0 -->
      <g transform="translate(78.828125 138.941665)scale(0.14 -0.14)">
       <defs>
        <path d="M 703 97 
L 703 672 
Q 941 559 1184 500 
Q 1428 441 1663 441 
Q 2288 441 2617 861 
Q 2947 1281 2994 2138 
Q 2813 1869 2534 1725 
Q 2256 1581 1919 1581 
Q 1219 1581 811 2004 
Q 403 2428 403 3163 
Q 403 3881 828 4315 
Q 1253 4750 1959 4750 
Q 2769 4750 3195 4129 
Q 3622 3509 3622 2328 
Q 3622 1225 3098 567 
Q 2575 -91 1691 -91 
Q 1453 -91 1209 -44 
Q 966 3 703 97 
z
M 1959 2075 
Q 2384 2075 2632 2365 
Q 2881 2656 2881 3163 
Q 2881 3666 2632 3958 
Q 2384 4250 1959 4250 
Q 1534 4250 1286 3958 
Q 1038 3666 1038 3163 
Q 1038 2656 1286 2365 
Q 1534 2075 1959 2075 
z
" id="DejaVuSans-39" transform="scale(0.015625)"/>
       </defs>
       <use xlink:href="#DejaVuSans-39"/>
       <use x="63.623047" xlink:href="#DejaVuSans-30"/>
       <use x="127.246094" xlink:href="#DejaVuSans-2e"/>
       <use x="159.033203" xlink:href="#DejaVuSans-30"/>
      </g>
     </g>
    </g>
    <g id="ytick_9">
     <g id="line2d_16">
      <g>
       <use style="stroke:#000000;stroke-width:0.8;" x="117" xlink:href="#m579e24dc17" y="85.188477"/>
      </g>
     </g>
     <g id="text_17">
      <!-- 92.5 -->
      <g transform="translate(78.828125 90.507383)scale(0.14 -0.14)">
       <use xlink:href="#DejaVuSans-39"/>
       <use x="63.623047" xlink:href="#DejaVuSans-32"/>
       <use x="127.246094" xlink:href="#DejaVuSans-2e"/>
       <use x="159.033203" xlink:href="#DejaVuSans-35"/>
      </g>
     </g>
    </g>
    <g id="text_18">
     <!-- Best heat transfer coefficient -->
     <g transform="translate(71.916562 388.749063)rotate(-90)scale(0.14 -0.14)">
      <defs>
       <path d="M 1259 2228 
L 1259 519 
L 2272 519 
Q 2781 519 3026 730 
Q 3272 941 3272 1375 
Q 3272 1813 3026 2020 
Q 2781 2228 2272 2228 
L 1259 2228 
z
M 1259 4147 
L 1259 2741 
L 2194 2741 
Q 2656 2741 2882 2914 
Q 3109 3088 3109 3444 
Q 3109 3797 2882 3972 
Q 2656 4147 2194 4147 
L 1259 4147 
z
M 628 4666 
L 2241 4666 
Q 2963 4666 3353 4366 
Q 3744 4066 3744 3513 
Q 3744 3084 3544 2831 
Q 3344 2578 2956 2516 
Q 3422 2416 3680 2098 
Q 3938 1781 3938 1306 
Q 3938 681 3513 340 
Q 3088 0 2303 0 
L 628 0 
L 628 4666 
z
" id="DejaVuSans-42" transform="scale(0.015625)"/>
       <path id="DejaVuSans-20" transform="scale(0.015625)"/>
       <path d="M 3513 2113 
L 3513 0 
L 2938 0 
L 2938 2094 
Q 2938 2591 2744 2837 
Q 2550 3084 2163 3084 
Q 1697 3084 1428 2787 
Q 1159 2491 1159 1978 
L 1159 0 
L 581 0 
L 581 4863 
L 1159 4863 
L 1159 2956 
Q 1366 3272 1645 3428 
Q 1925 3584 2291 3584 
Q 2894 3584 3203 3211 
Q 3513 2838 3513 2113 
z
" id="DejaVuSans-68" transform="scale(0.015625)"/>
       <path d="M 2375 4863 
L 2375 4384 
L 1825 4384 
Q 1516 4384 1395 4259 
Q 1275 4134 1275 3809 
L 1275 3500 
L 2222 3500 
L 2222 3053 
L 1275 3053 
L 1275 0 
L 697 0 
L 697 3053 
L 147 3053 
L 147 3500 
L 697 3500 
L 697 3744 
Q 697 4328 969 4595 
Q 1241 4863 1831 4863 
L 2375 4863 
z
" id="DejaVuSans-66" transform="scale(0.015625)"/>
       <path d="M 3122 3366 
L 3122 2828 
Q 2878 2963 2633 3030 
Q 2388 3097 2138 3097 
Q 1578 3097 1268 2742 
Q 959 2388 959 1747 
Q 959 1106 1268 751 
Q 1578 397 2138 397 
Q 2388 397 2633 464 
Q 2878 531 3122 666 
L 3122 134 
Q 2881 22 2623 -34 
Q 2366 -91 2075 -91 
Q 1284 -91 818 406 
Q 353 903 353 1747 
Q 353 2603 823 3093 
Q 1294 3584 2113 3584 
Q 2378 3584 2631 3529 
Q 2884 3475 3122 3366 
z
" id="DejaVuSans-63" transform="scale(0.015625)"/>
      </defs>
      <use xlink:href="#DejaVuSans-42"/>
      <use x="68.603516" xlink:href="#DejaVuSans-65"/>
      <use x="130.126953" xlink:href="#DejaVuSans-73"/>
      <use x="182.226562" xlink:href="#DejaVuSans-74"/>
      <use x="221.435547" xlink:href="#DejaVuSans-20"/>
      <use x="253.222656" xlink:href="#DejaVuSans-68"/>
      <use x="316.601562" xlink:href="#DejaVuSans-65"/>
      <use x="378.125" xlink:href="#DejaVuSans-61"/>
      <use x="439.404297" xlink:href="#DejaVuSans-74"/>
      <use x="478.613281" xlink:href="#DejaVuSans-20"/>
      <use x="510.400391" xlink:href="#DejaVuSans-74"/>
      <use x="549.609375" xlink:href="#DejaVuSans-72"/>
      <use x="590.722656" xlink:href="#DejaVuSans-61"/>
      <use x="652.001953" xlink:href="#DejaVuSans-6e"/>
      <use x="715.380859" xlink:href="#DejaVuSans-73"/>
      <use x="767.480469" xlink:href="#DejaVuSans-66"/>
      <use x="802.685547" xlink:href="#DejaVuSans-65"/>
      <use x="864.208984" xlink:href="#DejaVuSans-72"/>
      <use x="905.322266" xlink:href="#DejaVuSans-20"/>
      <use x="937.109375" xlink:href="#DejaVuSans-63"/>
      <use x="992.089844" xlink:href="#DejaVuSans-6f"/>
      <use x="1053.271484" xlink:href="#DejaVuSans-65"/>
      <use x="1114.794922" xlink:href="#DejaVuSans-66"/>
      <use x="1150" xlink:href="#DejaVuSans-66"/>
      <use x="1185.205078" xlink:href="#DejaVuSans-69"/>
      <use x="1212.988281" xlink:href="#DejaVuSans-63"/>
      <use x="1267.96875" xlink:href="#DejaVuSans-69"/>
      <use x="1295.751953" xlink:href="#DejaVuSans-65"/>
      <use x="1357.275391" xlink:href="#DejaVuSans-6e"/>
      <use x="1420.654297" xlink:href="#DejaVuSans-74"/>
     </g>
    </g>
   </g>
   <g id="line2d_17">
    <path clip-path="url(#pd4ab87776d)" d="M 117 352.431652 
L 141.18 288.143323 
L 165.36 257.46339 
L 189.54 221.2233 
L 213.72 204.394188 
L 237.9 196.928271 
L 262.08 183.756536 
L 286.26 178.382641 
L 310.44 168.405918 
L 334.62 160.438759 
L 358.8 159.98399 
L 382.98 142.755657 
L 407.16 139.369649 
L 431.34 135.990989 
L 455.52 134.811061 
L 479.7 133.850064 
L 503.88 133.850064 
L 528.06 133.850064 
L 552.24 132.121516 
L 576.42 132.121516 
L 600.6 128.581732 
L 624.78 128.581732 
L 648.96 125.637257 
L 673.14 125.637257 
L 697.32 125.637257 
L 721.5 120.964234 
L 745.68 120.964234 
L 769.86 120.964234 
L 794.04 120.964234 
L 818.22 120.964234 
L 842.4 120.964234 
L 866.58 119.784307 
L 890.76 119.784307 
L 914.94 119.784307 
L 937 119.784307 
" style="fill:none;stroke:#0000ff;stroke-linecap:square;stroke-width:1.5;"/>
   </g>
   <g id="line2d_18">
    <path clip-path="url(#pd4ab87776d)" d="M 117 352.750857 
L 141.18 300.304839 
L 165.36 272.064065 
L 189.54 239.656692 
L 213.72 227.677999 
L 237.9 219.794738 
L 262.08 208.664396 
L 286.26 195.334292 
L 310.44 179.870578 
L 334.62 175.300272 
L 358.8 161.986323 
L 382.98 161.54479 
L 407.16 160.521849 
L 431.34 160.334601 
L 455.52 156.080343 
L 479.7 142.958052 
L 503.88 137.226035 
L 528.06 134.317559 
L 552.24 133.137631 
L 576.42 133.137631 
L 600.6 133.137631 
L 624.78 133.137631 
L 648.96 131.957703 
L 673.14 131.409083 
L 697.32 130.764613 
L 721.5 127.820138 
L 745.68 123.147116 
L 769.86 119.022713 
L 794.04 116.078238 
L 818.22 116.078238 
L 842.4 115.76841 
L 866.58 114.588482 
L 890.76 113.408554 
L 914.94 113.408554 
L 937 113.408554 
" style="fill:none;stroke:#008000;stroke-linecap:square;stroke-width:1.5;"/>
   </g>
   <g id="line2d_19">
    <path clip-path="url(#pd4ab87776d)" d="M 117 352.750857 
L 141.18 292.546765 
L 165.36 282.301011 
L 189.54 260.82426 
L 213.72 253.622151 
L 237.9 237.685064 
L 262.08 226.358582 
L 286.26 217.128721 
L 310.44 209.42498 
L 334.62 203.815437 
L 358.8 189.555772 
L 382.98 183.88138 
L 407.16 183.415158 
L 431.34 176.102531 
L 455.52 175.019071 
L 479.7 172.210829 
L 503.88 166.308411 
L 528.06 162.253245 
L 552.24 157.668134 
L 576.42 155.956545 
L 600.6 155.508159 
L 624.78 153.886698 
L 648.96 147.36896 
L 673.14 147.36896 
L 697.32 145.797398 
L 721.5 145.012419 
L 745.68 137.299071 
L 769.86 137.218903 
L 794.04 136.150826 
L 818.22 134.970898 
L 842.4 134.120032 
L 866.58 129.447009 
L 890.76 128.267081 
L 914.94 125.322606 
L 937 125.322606 
" style="fill:none;stroke:#ff0000;stroke-linecap:square;stroke-width:1.5;"/>
   </g>
   <g id="line2d_20">
    <path clip-path="url(#pd4ab87776d)" d="M 117 352.750857 
L 141.18 301.858268 
L 165.36 275.389751 
L 189.54 251.412231 
L 213.72 231.774431 
L 237.9 227.766783 
L 262.08 217.014005 
L 286.26 209.825229 
L 310.44 201.341356 
L 334.62 189.470974 
L 358.8 188.446801 
L 382.98 184.893485 
L 407.16 181.611176 
L 431.34 180.450206 
L 455.52 176.861261 
L 479.7 175.900263 
L 503.88 172.133154 
L 528.06 171.268006 
L 552.24 167.679061 
L 576.42 167.679061 
L 600.6 167.679061 
L 624.78 167.679061 
L 648.96 166.798232 
L 673.14 166.798232 
L 697.32 166.798232 
L 721.5 166.798232 
L 745.68 166.798232 
L 769.86 166.798232 
L 794.04 166.798232 
L 818.22 164.39164 
L 842.4 163.84302 
L 866.58 163.84302 
L 890.76 163.84302 
L 914.94 163.84302 
L 937 163.84302 
" style="fill:none;stroke:#800080;stroke-linecap:square;stroke-width:1.5;"/>
   </g>
   <g id="line2d_21">
    <path clip-path="url(#pd4ab87776d)" d="M 117 103.384512 
L 141.18 103.384512 
L 165.36 103.384512 
L 189.54 103.384512 
L 213.72 103.384512 
L 237.9 103.384512 
L 262.08 103.384512 
L 286.26 103.384512 
L 310.44 103.384512 
L 334.62 103.384512 
L 358.8 103.384512 
L 382.98 103.384512 
L 407.16 103.384512 
L 431.34 103.384512 
L 455.52 103.384512 
L 479.7 103.384512 
L 503.88 103.384512 
L 528.06 103.384512 
L 552.24 103.384512 
L 576.42 103.384512 
L 600.6 103.384512 
L 624.78 103.384512 
L 648.96 103.384512 
L 673.14 103.384512 
L 697.32 103.384512 
L 721.5 103.384512 
L 745.68 103.384512 
L 769.86 103.384512 
L 794.04 103.384512 
L 818.22 103.384512 
L 842.4 103.384512 
L 866.58 103.384512 
L 890.76 103.384512 
L 914.94 103.384512 
L 937 103.384512 
" style="fill:none;stroke:#ff0000;stroke-dasharray:5.55,2.4;stroke-dashoffset:0;stroke-width:1.5;"/>
   </g>
   <g id="patch_3">
    <path d="M 117 504 
L 117 69.12 
" style="fill:none;stroke:#000000;stroke-linecap:square;stroke-linejoin:miter;stroke-width:0.8;"/>
   </g>
   <g id="patch_4">
    <path d="M 842.4 504 
L 842.4 69.12 
" style="fill:none;stroke:#000000;stroke-linecap:square;stroke-linejoin:miter;stroke-width:0.8;"/>
   </g>
   <g id="patch_5">
    <path d="M 117 504 
L 842.4 504 
" style="fill:none;stroke:#000000;stroke-linecap:square;stroke-linejoin:miter;stroke-width:0.8;"/>
   </g>
   <g id="patch_6">
    <path d="M 117 69.12 
L 842.4 69.12 
" style="fill:none;stroke:#000000;stroke-linecap:square;stroke-linejoin:miter;stroke-width:0.8;"/>
   </g>
  </g>
 </g>
 <defs>
  <clipPath id="pd4ab87776d">
   <rect height="434.88" width="725.4" x="117" y="69.12"/>
  </clipPath>
 </defs>
</svg>
