<?xml version="1.0" encoding="utf-8" standalone="no"?>
<!DOCTYPE svg PUBLIC "-//W3C//DTD SVG 1.1//EN"
  "http://www.w3.org/Graphics/SVG/1.1/DTD/svg11.dtd">
<svg height="576pt" version="1.1" viewBox="0 0 936 576" width="936pt" xmlns="http://www.w3.org/2000/svg" xmlns:xlink="http://www.w3.org/1999/xlink">
 <metadata>
  <rdf:RDF xmlns:cc="http://creativecommons.org/ns#" xmlns:dc="http://purl.org/dc/elements/1.1/" xmlns:rdf="http://www.w3.org/1999/02/22-rdf-syntax-ns#">
   <cc:Work>
    <dc:type rdf:resource="http://purl.org/dc/dcmitype/StillImage"/>
    <dc:date>2024-03-27T23:18:33.335914</dc:date>
    <dc:format>image/svg+xml</dc:format>
    <dc:creator>
     <cc:Agent>
      <dc:title>Matplotlib v3.4.3, https://matplotlib.org/</dc:title>
     </cc:Agent>
    </dc:creator>
   </cc:Work>
  </rdf:RDF>
 </metadata>
 <defs>
  <style type="text/css">*{stroke-linecap:butt;stroke-linejoin:round;}</style>
 </defs>
 <g id="figure_1">
  <g id="patch_1">
   <path d="M 0 576 
L 936 576 
L 936 0 
L 0 0 
z
" style="fill:none;"/>
  </g>
  <g id="axes_1">
   <g id="patch_2">
    <path d="M 53.55 526.059375 
L 660.46875 526.059375 
L 660.46875 10.8 
L 53.55 10.8 
z
" style="fill:#ffffff;"/>
   </g>
   <g id="PolyCollection_1">
    <path clip-path="url(#pde44135209)" d="M 53.55 97.848429 
L 53.55 211.281126 
L 73.780625 182.703883 
L 94.01125 171.019033 
L 114.241875 160.144188 
L 134.4725 139.736452 
L 154.703125 131.06382 
L 174.93375 123.163396 
L 195.164375 112.053569 
L 215.395 109.010431 
L 235.625625 108.295502 
L 255.85625 102.741899 
L 276.086875 97.811609 
L 296.3175 91.481384 
L 316.548125 84.038049 
L 336.77875 81.503868 
L 357.009375 81.503868 
L 377.24 76.408328 
L 397.470625 76.408328 
L 417.70125 76.016783 
L 437.931875 75.598939 
L 458.1625 73.551936 
L 478.393125 68.651153 
L 498.62375 66.225266 
L 518.854375 65.649048 
L 539.085 65.042927 
L 559.315625 65.042927 
L 579.54625 65.042927 
L 599.776875 65.042927 
L 620.0075 64.407256 
L 640.238125 64.407256 
L 660.46875 64.407256 
L 680.699375 64.407256 
L 700.93 64.407256 
L 721.160625 64.407256 
L 741.39125 64.407256 
L 761.621875 63.745749 
L 781.8525 59.049214 
L 802.083125 59.049214 
L 822.31375 59.049214 
L 842.544375 59.049214 
L 862.775 59.049214 
L 883.005625 59.049214 
L 903.23625 59.049214 
L 923.466875 59.049214 
L 943.6975 59.049214 
L 963.928125 59.049214 
L 984.15875 59.049214 
L 1004.389375 59.049214 
L 1024.62 59.049214 
L 1044.850625 59.049214 
L 1065.08125 59.049214 
L 1065.08125 35.907853 
L 1065.08125 35.907853 
L 1044.850625 35.907853 
L 1024.62 35.907853 
L 1004.389375 35.907853 
L 984.15875 35.907853 
L 963.928125 35.907853 
L 943.6975 35.907853 
L 923.466875 35.907853 
L 903.23625 35.907853 
L 883.005625 35.907853 
L 862.775 35.907853 
L 842.544375 35.907853 
L 822.31375 35.907853 
L 802.083125 35.907853 
L 781.8525 35.907853 
L 761.621875 34.532881 
L 741.39125 34.220881 
L 721.160625 34.220881 
L 700.93 34.220881 
L 680.699375 34.220881 
L 660.46875 34.220881 
L 640.238125 34.220881 
L 620.0075 34.220881 
L 599.776875 34.916247 
L 579.54625 34.916247 
L 559.315625 34.916247 
L 539.085 34.916247 
L 518.854375 35.641163 
L 498.62375 36.395982 
L 478.393125 36.378266 
L 458.1625 36.748962 
L 437.931875 36.23423 
L 417.70125 37.147423 
L 397.470625 38.086915 
L 377.24 38.086915 
L 357.009375 37.925451 
L 336.77875 37.925451 
L 316.548125 38.712832 
L 296.3175 41.565488 
L 276.086875 43.378375 
L 255.85625 45.085111 
L 235.625625 44.631121 
L 215.395 44.625497 
L 195.164375 48.045166 
L 174.93375 52.712542 
L 154.703125 51.999794 
L 134.4725 55.391892 
L 114.241875 56.108107 
L 94.01125 55.059229 
L 73.780625 66.653531 
L 53.55 97.848429 
z
" style="fill:#0000ff;fill-opacity:0.2;stroke:#0000ff;stroke-opacity:0.2;"/>
   </g>
   <g id="PolyCollection_2">
    <path clip-path="url(#pde44135209)" d="M 53.55 283.531551 
L 53.55 502.638494 
L 74.193495 435.11672 
L 94.83699 380.166612 
L 115.480485 329.489172 
L 136.12398 301.791359 
L 156.767474 283.707874 
L 177.410969 275.307112 
L 198.054464 249.74323 
L 218.697959 249.74323 
L 239.341454 249.556731 
L 259.984949 197.44173 
L 280.628444 192.598914 
L 301.271939 187.10601 
L 321.915434 183.335132 
L 342.558929 183.335132 
L 363.202423 178.086381 
L 383.845918 178.086381 
L 404.489413 178.086381 
L 425.132908 175.617924 
L 445.776403 174.153429 
L 466.419898 172.74794 
L 487.063393 172.74794 
L 507.706888 170.418202 
L 528.350383 168.170251 
L 548.993878 168.170251 
L 569.637372 168.170251 
L 590.280867 168.170251 
L 610.924362 166.160989 
L 631.567857 166.160989 
L 652.211352 165.496161 
L 672.854847 165.496161 
L 693.498342 162.346454 
L 714.141837 159.947312 
L 734.785332 159.707899 
L 755.428827 149.449496 
L 776.072321 148.192937 
L 796.715816 147.443486 
L 817.359311 147.443486 
L 838.002806 146.956919 
L 858.646301 146.956919 
L 879.289796 146.956919 
L 899.933291 145.945299 
L 920.576786 145.945299 
L 941.220281 145.945299 
L 961.863776 145.945299 
L 982.50727 145.945299 
L 1003.150765 145.945299 
L 1023.79426 145.945299 
L 1044.437755 145.945299 
L 1065.08125 145.945299 
L 1065.08125 90.941396 
L 1065.08125 90.941396 
L 1044.437755 90.941396 
L 1023.79426 90.941396 
L 1003.150765 90.941396 
L 982.50727 90.941396 
L 961.863776 90.941396 
L 941.220281 90.941396 
L 920.576786 90.941396 
L 899.933291 90.941396 
L 879.289796 90.976446 
L 858.646301 90.976446 
L 838.002806 90.976446 
L 817.359311 91.728484 
L 796.715816 91.728484 
L 776.072321 91.906403 
L 755.428827 94.356511 
L 734.785332 95.041717 
L 714.141837 95.165482 
L 693.498342 97.16328 
L 672.854847 96.293814 
L 652.211352 96.293814 
L 631.567857 98.909017 
L 610.924362 98.909017 
L 590.280867 100.39719 
L 569.637372 100.39719 
L 548.993878 100.39719 
L 528.350383 100.39719 
L 507.706888 102.295819 
L 487.063393 104.55172 
L 466.419898 104.55172 
L 445.776403 104.502632 
L 425.132908 105.620638 
L 404.489413 107.285431 
L 383.845918 107.285431 
L 363.202423 107.285431 
L 342.558929 112.136278 
L 321.915434 112.136278 
L 301.271939 117.470681 
L 280.628444 116.506289 
L 259.984949 117.674092 
L 239.341454 100.963786 
L 218.697959 101.886254 
L 198.054464 101.886254 
L 177.410969 110.527698 
L 156.767474 113.373073 
L 136.12398 119.646961 
L 115.480485 122.089661 
L 94.83699 173.501561 
L 74.193495 220.264538 
L 53.55 283.531551 
z
" style="fill:#008000;fill-opacity:0.2;stroke:#008000;stroke-opacity:0.2;"/>
   </g>
   <g id="matplotlib.axis_1">
    <g id="xtick_1">
     <g id="line2d_1">
      <defs>
       <path d="M 0 0 
L 0 3.5 
" id="m94ae486af5" style="stroke:#000000;stroke-width:0.8;"/>
      </defs>
      <g>
       <use style="stroke:#000000;stroke-width:0.8;" x="53.55" xlink:href="#m94ae486af5" y="526.059375"/>
      </g>
     </g>
     <g id="text_1">
      <!-- 0 -->
      <g transform="translate(49.09625 543.697188)scale(0.14 -0.14)">
       <defs>
        <path d="M 2034 4250 
Q 1547 4250 1301 3770 
Q 1056 3291 1056 2328 
Q 1056 1369 1301 889 
Q 1547 409 2034 409 
Q 2525 409 2770 889 
Q 3016 1369 3016 2328 
Q 3016 3291 2770 3770 
Q 2525 4250 2034 4250 
z
M 2034 4750 
Q 2819 4750 3233 4129 
Q 3647 3509 3647 2328 
Q 3647 1150 3233 529 
Q 2819 -91 2034 -91 
Q 1250 -91 836 529 
Q 422 1150 422 2328 
Q 422 3509 836 4129 
Q 1250 4750 2034 4750 
z
" id="DejaVuSans-30" transform="scale(0.015625)"/>
       </defs>
       <use xlink:href="#DejaVuSans-30"/>
      </g>
     </g>
    </g>
    <g id="xtick_2">
     <g id="line2d_2">
      <g>
       <use style="stroke:#000000;stroke-width:0.8;" x="154.703125" xlink:href="#m94ae486af5" y="526.059375"/>
      </g>
     </g>
     <g id="text_2">
      <!-- 5 -->
      <g transform="translate(150.249375 543.697188)scale(0.14 -0.14)">
       <defs>
        <path d="M 691 4666 
L 3169 4666 
L 3169 4134 
L 1269 4134 
L 1269 2991 
Q 1406 3038 1543 3061 
Q 1681 3084 1819 3084 
Q 2600 3084 3056 2656 
Q 3513 2228 3513 1497 
Q 3513 744 3044 326 
Q 2575 -91 1722 -91 
Q 1428 -91 1123 -41 
Q 819 9 494 109 
L 494 744 
Q 775 591 1075 516 
Q 1375 441 1709 441 
Q 2250 441 2565 725 
Q 2881 1009 2881 1497 
Q 2881 1984 2565 2268 
Q 2250 2553 1709 2553 
Q 1456 2553 1204 2497 
Q 953 2441 691 2322 
L 691 4666 
z
" id="DejaVuSans-35" transform="scale(0.015625)"/>
       </defs>
       <use xlink:href="#DejaVuSans-35"/>
      </g>
     </g>
    </g>
    <g id="xtick_3">
     <g id="line2d_3">
      <g>
       <use style="stroke:#000000;stroke-width:0.8;" x="255.85625" xlink:href="#m94ae486af5" y="526.059375"/>
      </g>
     </g>
     <g id="text_3">
      <!-- 10 -->
      <g transform="translate(246.94875 543.697188)scale(0.14 -0.14)">
       <defs>
        <path d="M 794 531 
L 1825 531 
L 1825 4091 
L 703 3866 
L 703 4441 
L 1819 4666 
L 2450 4666 
L 2450 531 
L 3481 531 
L 3481 0 
L 794 0 
L 794 531 
z
" id="DejaVuSans-31" transform="scale(0.015625)"/>
       </defs>
       <use xlink:href="#DejaVuSans-31"/>
       <use x="63.623047" xlink:href="#DejaVuSans-30"/>
      </g>
     </g>
    </g>
    <g id="xtick_4">
     <g id="line2d_4">
      <g>
       <use style="stroke:#000000;stroke-width:0.8;" x="357.009375" xlink:href="#m94ae486af5" y="526.059375"/>
      </g>
     </g>
     <g id="text_4">
      <!-- 15 -->
      <g transform="translate(348.101875 543.697188)scale(0.14 -0.14)">
       <use xlink:href="#DejaVuSans-31"/>
       <use x="63.623047" xlink:href="#DejaVuSans-35"/>
      </g>
     </g>
    </g>
    <g id="xtick_5">
     <g id="line2d_5">
      <g>
       <use style="stroke:#000000;stroke-width:0.8;" x="458.1625" xlink:href="#m94ae486af5" y="526.059375"/>
      </g>
     </g>
     <g id="text_5">
      <!-- 20 -->
      <g transform="translate(449.255 543.697188)scale(0.14 -0.14)">
       <defs>
        <path d="M 1228 531 
L 3431 531 
L 3431 0 
L 469 0 
L 469 531 
Q 828 903 1448 1529 
Q 2069 2156 2228 2338 
Q 2531 2678 2651 2914 
Q 2772 3150 2772 3378 
Q 2772 3750 2511 3984 
Q 2250 4219 1831 4219 
Q 1534 4219 1204 4116 
Q 875 4013 500 3803 
L 500 4441 
Q 881 4594 1212 4672 
Q 1544 4750 1819 4750 
Q 2544 4750 2975 4387 
Q 3406 4025 3406 3419 
Q 3406 3131 3298 2873 
Q 3191 2616 2906 2266 
Q 2828 2175 2409 1742 
Q 1991 1309 1228 531 
z
" id="DejaVuSans-32" transform="scale(0.015625)"/>
       </defs>
       <use xlink:href="#DejaVuSans-32"/>
       <use x="63.623047" xlink:href="#DejaVuSans-30"/>
      </g>
     </g>
    </g>
    <g id="xtick_6">
     <g id="line2d_6">
      <g>
       <use style="stroke:#000000;stroke-width:0.8;" x="559.315625" xlink:href="#m94ae486af5" y="526.059375"/>
      </g>
     </g>
     <g id="text_6">
      <!-- 25 -->
      <g transform="translate(550.408125 543.697188)scale(0.14 -0.14)">
       <use xlink:href="#DejaVuSans-32"/>
       <use x="63.623047" xlink:href="#DejaVuSans-35"/>
      </g>
     </g>
    </g>
    <g id="xtick_7">
     <g id="line2d_7">
      <g>
       <use style="stroke:#000000;stroke-width:0.8;" x="660.46875" xlink:href="#m94ae486af5" y="526.059375"/>
      </g>
     </g>
     <g id="text_7">
      <!-- 30 -->
      <g transform="translate(651.56125 543.697188)scale(0.14 -0.14)">
       <defs>
        <path d="M 2597 2516 
Q 3050 2419 3304 2112 
Q 3559 1806 3559 1356 
Q 3559 666 3084 287 
Q 2609 -91 1734 -91 
Q 1441 -91 1130 -33 
Q 819 25 488 141 
L 488 750 
Q 750 597 1062 519 
Q 1375 441 1716 441 
Q 2309 441 2620 675 
Q 2931 909 2931 1356 
Q 2931 1769 2642 2001 
Q 2353 2234 1838 2234 
L 1294 2234 
L 1294 2753 
L 1863 2753 
Q 2328 2753 2575 2939 
Q 2822 3125 2822 3475 
Q 2822 3834 2567 4026 
Q 2313 4219 1838 4219 
Q 1578 4219 1281 4162 
Q 984 4106 628 3988 
L 628 4550 
Q 988 4650 1302 4700 
Q 1616 4750 1894 4750 
Q 2613 4750 3031 4423 
Q 3450 4097 3450 3541 
Q 3450 3153 3228 2886 
Q 3006 2619 2597 2516 
z
" id="DejaVuSans-33" transform="scale(0.015625)"/>
       </defs>
       <use xlink:href="#DejaVuSans-33"/>
       <use x="63.623047" xlink:href="#DejaVuSans-30"/>
      </g>
     </g>
    </g>
    <g id="text_8">
     <!-- n_iterations -->
     <g transform="translate(315.854844 561.246562)scale(0.14 -0.14)">
      <defs>
       <path d="M 3513 2113 
L 3513 0 
L 2938 0 
L 2938 2094 
Q 2938 2591 2744 2837 
Q 2550 3084 2163 3084 
Q 1697 3084 1428 2787 
Q 1159 2491 1159 1978 
L 1159 0 
L 581 0 
L 581 3500 
L 1159 3500 
L 1159 2956 
Q 1366 3272 1645 3428 
Q 1925 3584 2291 3584 
Q 2894 3584 3203 3211 
Q 3513 2838 3513 2113 
z
" id="DejaVuSans-6e" transform="scale(0.015625)"/>
       <path d="M 3263 -1063 
L 3263 -1509 
L -63 -1509 
L -63 -1063 
L 3263 -1063 
z
" id="DejaVuSans-5f" transform="scale(0.015625)"/>
       <path d="M 603 3500 
L 1178 3500 
L 1178 0 
L 603 0 
L 603 3500 
z
M 603 4863 
L 1178 4863 
L 1178 4134 
L 603 4134 
L 603 4863 
z
" id="DejaVuSans-69" transform="scale(0.015625)"/>
       <path d="M 1172 4494 
L 1172 3500 
L 2356 3500 
L 2356 3053 
L 1172 3053 
L 1172 1153 
Q 1172 725 1289 603 
Q 1406 481 1766 481 
L 2356 481 
L 2356 0 
L 1766 0 
Q 1100 0 847 248 
Q 594 497 594 1153 
L 594 3053 
L 172 3053 
L 172 3500 
L 594 3500 
L 594 4494 
L 1172 4494 
z
" id="DejaVuSans-74" transform="scale(0.015625)"/>
       <path d="M 3597 1894 
L 3597 1613 
L 953 1613 
Q 991 1019 1311 708 
Q 1631 397 2203 397 
Q 2534 397 2845 478 
Q 3156 559 3463 722 
L 3463 178 
Q 3153 47 2828 -22 
Q 2503 -91 2169 -91 
Q 1331 -91 842 396 
Q 353 884 353 1716 
Q 353 2575 817 3079 
Q 1281 3584 2069 3584 
Q 2775 3584 3186 3129 
Q 3597 2675 3597 1894 
z
M 3022 2063 
Q 3016 2534 2758 2815 
Q 2500 3097 2075 3097 
Q 1594 3097 1305 2825 
Q 1016 2553 972 2059 
L 3022 2063 
z
" id="DejaVuSans-65" transform="scale(0.015625)"/>
       <path d="M 2631 2963 
Q 2534 3019 2420 3045 
Q 2306 3072 2169 3072 
Q 1681 3072 1420 2755 
Q 1159 2438 1159 1844 
L 1159 0 
L 581 0 
L 581 3500 
L 1159 3500 
L 1159 2956 
Q 1341 3275 1631 3429 
Q 1922 3584 2338 3584 
Q 2397 3584 2469 3576 
Q 2541 3569 2628 3553 
L 2631 2963 
z
" id="DejaVuSans-72" transform="scale(0.015625)"/>
       <path d="M 2194 1759 
Q 1497 1759 1228 1600 
Q 959 1441 959 1056 
Q 959 750 1161 570 
Q 1363 391 1709 391 
Q 2188 391 2477 730 
Q 2766 1069 2766 1631 
L 2766 1759 
L 2194 1759 
z
M 3341 1997 
L 3341 0 
L 2766 0 
L 2766 531 
Q 2569 213 2275 61 
Q 1981 -91 1556 -91 
Q 1019 -91 701 211 
Q 384 513 384 1019 
Q 384 1609 779 1909 
Q 1175 2209 1959 2209 
L 2766 2209 
L 2766 2266 
Q 2766 2663 2505 2880 
Q 2244 3097 1772 3097 
Q 1472 3097 1187 3025 
Q 903 2953 641 2809 
L 641 3341 
Q 956 3463 1253 3523 
Q 1550 3584 1831 3584 
Q 2591 3584 2966 3190 
Q 3341 2797 3341 1997 
z
" id="DejaVuSans-61" transform="scale(0.015625)"/>
       <path d="M 1959 3097 
Q 1497 3097 1228 2736 
Q 959 2375 959 1747 
Q 959 1119 1226 758 
Q 1494 397 1959 397 
Q 2419 397 2687 759 
Q 2956 1122 2956 1747 
Q 2956 2369 2687 2733 
Q 2419 3097 1959 3097 
z
M 1959 3584 
Q 2709 3584 3137 3096 
Q 3566 2609 3566 1747 
Q 3566 888 3137 398 
Q 2709 -91 1959 -91 
Q 1206 -91 779 398 
Q 353 888 353 1747 
Q 353 2609 779 3096 
Q 1206 3584 1959 3584 
z
" id="DejaVuSans-6f" transform="scale(0.015625)"/>
       <path d="M 2834 3397 
L 2834 2853 
Q 2591 2978 2328 3040 
Q 2066 3103 1784 3103 
Q 1356 3103 1142 2972 
Q 928 2841 928 2578 
Q 928 2378 1081 2264 
Q 1234 2150 1697 2047 
L 1894 2003 
Q 2506 1872 2764 1633 
Q 3022 1394 3022 966 
Q 3022 478 2636 193 
Q 2250 -91 1575 -91 
Q 1294 -91 989 -36 
Q 684 19 347 128 
L 347 722 
Q 666 556 975 473 
Q 1284 391 1588 391 
Q 1994 391 2212 530 
Q 2431 669 2431 922 
Q 2431 1156 2273 1281 
Q 2116 1406 1581 1522 
L 1381 1569 
Q 847 1681 609 1914 
Q 372 2147 372 2553 
Q 372 3047 722 3315 
Q 1072 3584 1716 3584 
Q 2034 3584 2315 3537 
Q 2597 3491 2834 3397 
z
" id="DejaVuSans-73" transform="scale(0.015625)"/>
      </defs>
      <use xlink:href="#DejaVuSans-6e"/>
      <use x="63.378906" xlink:href="#DejaVuSans-5f"/>
      <use x="113.378906" xlink:href="#DejaVuSans-69"/>
      <use x="141.162109" xlink:href="#DejaVuSans-74"/>
      <use x="180.371094" xlink:href="#DejaVuSans-65"/>
      <use x="241.894531" xlink:href="#DejaVuSans-72"/>
      <use x="283.007812" xlink:href="#DejaVuSans-61"/>
      <use x="344.287109" xlink:href="#DejaVuSans-74"/>
      <use x="383.496094" xlink:href="#DejaVuSans-69"/>
      <use x="411.279297" xlink:href="#DejaVuSans-6f"/>
      <use x="472.460938" xlink:href="#DejaVuSans-6e"/>
      <use x="535.839844" xlink:href="#DejaVuSans-73"/>
     </g>
    </g>
   </g>
   <g id="matplotlib.axis_2">
    <g id="ytick_1">
     <g id="line2d_8">
      <defs>
       <path d="M 0 0 
L -3.5 0 
" id="mc6317ef87e" style="stroke:#000000;stroke-width:0.8;"/>
      </defs>
      <g>
       <use style="stroke:#000000;stroke-width:0.8;" x="53.55" xlink:href="#mc6317ef87e" y="496.467397"/>
      </g>
     </g>
     <g id="text_9">
      <!-- 50 -->
      <g transform="translate(28.735 501.786304)scale(0.14 -0.14)">
       <use xlink:href="#DejaVuSans-35"/>
       <use x="63.623047" xlink:href="#DejaVuSans-30"/>
      </g>
     </g>
    </g>
    <g id="ytick_2">
     <g id="line2d_9">
      <g>
       <use style="stroke:#000000;stroke-width:0.8;" x="53.55" xlink:href="#mc6317ef87e" y="387.193243"/>
      </g>
     </g>
     <g id="text_10">
      <!-- 60 -->
      <g transform="translate(28.735 392.512149)scale(0.14 -0.14)">
       <defs>
        <path d="M 2113 2584 
Q 1688 2584 1439 2293 
Q 1191 2003 1191 1497 
Q 1191 994 1439 701 
Q 1688 409 2113 409 
Q 2538 409 2786 701 
Q 3034 994 3034 1497 
Q 3034 2003 2786 2293 
Q 2538 2584 2113 2584 
z
M 3366 4563 
L 3366 3988 
Q 3128 4100 2886 4159 
Q 2644 4219 2406 4219 
Q 1781 4219 1451 3797 
Q 1122 3375 1075 2522 
Q 1259 2794 1537 2939 
Q 1816 3084 2150 3084 
Q 2853 3084 3261 2657 
Q 3669 2231 3669 1497 
Q 3669 778 3244 343 
Q 2819 -91 2113 -91 
Q 1303 -91 875 529 
Q 447 1150 447 2328 
Q 447 3434 972 4092 
Q 1497 4750 2381 4750 
Q 2619 4750 2861 4703 
Q 3103 4656 3366 4563 
z
" id="DejaVuSans-36" transform="scale(0.015625)"/>
       </defs>
       <use xlink:href="#DejaVuSans-36"/>
       <use x="63.623047" xlink:href="#DejaVuSans-30"/>
      </g>
     </g>
    </g>
    <g id="ytick_3">
     <g id="line2d_10">
      <g>
       <use style="stroke:#000000;stroke-width:0.8;" x="53.55" xlink:href="#mc6317ef87e" y="277.919088"/>
      </g>
     </g>
     <g id="text_11">
      <!-- 70 -->
      <g transform="translate(28.735 283.237995)scale(0.14 -0.14)">
       <defs>
        <path d="M 525 4666 
L 3525 4666 
L 3525 4397 
L 1831 0 
L 1172 0 
L 2766 4134 
L 525 4134 
L 525 4666 
z
" id="DejaVuSans-37" transform="scale(0.015625)"/>
       </defs>
       <use xlink:href="#DejaVuSans-37"/>
       <use x="63.623047" xlink:href="#DejaVuSans-30"/>
      </g>
     </g>
    </g>
    <g id="ytick_4">
     <g id="line2d_11">
      <g>
       <use style="stroke:#000000;stroke-width:0.8;" x="53.55" xlink:href="#mc6317ef87e" y="168.644934"/>
      </g>
     </g>
     <g id="text_12">
      <!-- 80 -->
      <g transform="translate(28.735 173.96384)scale(0.14 -0.14)">
       <defs>
        <path d="M 2034 2216 
Q 1584 2216 1326 1975 
Q 1069 1734 1069 1313 
Q 1069 891 1326 650 
Q 1584 409 2034 409 
Q 2484 409 2743 651 
Q 3003 894 3003 1313 
Q 3003 1734 2745 1975 
Q 2488 2216 2034 2216 
z
M 1403 2484 
Q 997 2584 770 2862 
Q 544 3141 544 3541 
Q 544 4100 942 4425 
Q 1341 4750 2034 4750 
Q 2731 4750 3128 4425 
Q 3525 4100 3525 3541 
Q 3525 3141 3298 2862 
Q 3072 2584 2669 2484 
Q 3125 2378 3379 2068 
Q 3634 1759 3634 1313 
Q 3634 634 3220 271 
Q 2806 -91 2034 -91 
Q 1263 -91 848 271 
Q 434 634 434 1313 
Q 434 1759 690 2068 
Q 947 2378 1403 2484 
z
M 1172 3481 
Q 1172 3119 1398 2916 
Q 1625 2713 2034 2713 
Q 2441 2713 2670 2916 
Q 2900 3119 2900 3481 
Q 2900 3844 2670 4047 
Q 2441 4250 2034 4250 
Q 1625 4250 1398 4047 
Q 1172 3844 1172 3481 
z
" id="DejaVuSans-38" transform="scale(0.015625)"/>
       </defs>
       <use xlink:href="#DejaVuSans-38"/>
       <use x="63.623047" xlink:href="#DejaVuSans-30"/>
      </g>
     </g>
    </g>
    <g id="ytick_5">
     <g id="line2d_12">
      <g>
       <use style="stroke:#000000;stroke-width:0.8;" x="53.55" xlink:href="#mc6317ef87e" y="59.370779"/>
      </g>
     </g>
     <g id="text_13">
      <!-- 90 -->
      <g transform="translate(28.735 64.689686)scale(0.14 -0.14)">
       <defs>
        <path d="M 703 97 
L 703 672 
Q 941 559 1184 500 
Q 1428 441 1663 441 
Q 2288 441 2617 861 
Q 2947 1281 2994 2138 
Q 2813 1869 2534 1725 
Q 2256 1581 1919 1581 
Q 1219 1581 811 2004 
Q 403 2428 403 3163 
Q 403 3881 828 4315 
Q 1253 4750 1959 4750 
Q 2769 4750 3195 4129 
Q 3622 3509 3622 2328 
Q 3622 1225 3098 567 
Q 2575 -91 1691 -91 
Q 1453 -91 1209 -44 
Q 966 3 703 97 
z
M 1959 2075 
Q 2384 2075 2632 2365 
Q 2881 2656 2881 3163 
Q 2881 3666 2632 3958 
Q 2384 4250 1959 4250 
Q 1534 4250 1286 3958 
Q 1038 3666 1038 3163 
Q 1038 2656 1286 2365 
Q 1534 2075 1959 2075 
z
" id="DejaVuSans-39" transform="scale(0.015625)"/>
       </defs>
       <use xlink:href="#DejaVuSans-39"/>
       <use x="63.623047" xlink:href="#DejaVuSans-30"/>
      </g>
     </g>
    </g>
    <g id="text_14">
     <!-- Best h found -->
     <g transform="translate(21.823437 312.879687)rotate(-90)scale(0.14 -0.14)">
      <defs>
       <path d="M 1259 2228 
L 1259 519 
L 2272 519 
Q 2781 519 3026 730 
Q 3272 941 3272 1375 
Q 3272 1813 3026 2020 
Q 2781 2228 2272 2228 
L 1259 2228 
z
M 1259 4147 
L 1259 2741 
L 2194 2741 
Q 2656 2741 2882 2914 
Q 3109 3088 3109 3444 
Q 3109 3797 2882 3972 
Q 2656 4147 2194 4147 
L 1259 4147 
z
M 628 4666 
L 2241 4666 
Q 2963 4666 3353 4366 
Q 3744 4066 3744 3513 
Q 3744 3084 3544 2831 
Q 3344 2578 2956 2516 
Q 3422 2416 3680 2098 
Q 3938 1781 3938 1306 
Q 3938 681 3513 340 
Q 3088 0 2303 0 
L 628 0 
L 628 4666 
z
" id="DejaVuSans-42" transform="scale(0.015625)"/>
       <path id="DejaVuSans-20" transform="scale(0.015625)"/>
       <path d="M 3513 2113 
L 3513 0 
L 2938 0 
L 2938 2094 
Q 2938 2591 2744 2837 
Q 2550 3084 2163 3084 
Q 1697 3084 1428 2787 
Q 1159 2491 1159 1978 
L 1159 0 
L 581 0 
L 581 4863 
L 1159 4863 
L 1159 2956 
Q 1366 3272 1645 3428 
Q 1925 3584 2291 3584 
Q 2894 3584 3203 3211 
Q 3513 2838 3513 2113 
z
" id="DejaVuSans-68" transform="scale(0.015625)"/>
       <path d="M 2375 4863 
L 2375 4384 
L 1825 4384 
Q 1516 4384 1395 4259 
Q 1275 4134 1275 3809 
L 1275 3500 
L 2222 3500 
L 2222 3053 
L 1275 3053 
L 1275 0 
L 697 0 
L 697 3053 
L 147 3053 
L 147 3500 
L 697 3500 
L 697 3744 
Q 697 4328 969 4595 
Q 1241 4863 1831 4863 
L 2375 4863 
z
" id="DejaVuSans-66" transform="scale(0.015625)"/>
       <path d="M 544 1381 
L 544 3500 
L 1119 3500 
L 1119 1403 
Q 1119 906 1312 657 
Q 1506 409 1894 409 
Q 2359 409 2629 706 
Q 2900 1003 2900 1516 
L 2900 3500 
L 3475 3500 
L 3475 0 
L 2900 0 
L 2900 538 
Q 2691 219 2414 64 
Q 2138 -91 1772 -91 
Q 1169 -91 856 284 
Q 544 659 544 1381 
z
M 1991 3584 
L 1991 3584 
z
" id="DejaVuSans-75" transform="scale(0.015625)"/>
       <path d="M 2906 2969 
L 2906 4863 
L 3481 4863 
L 3481 0 
L 2906 0 
L 2906 525 
Q 2725 213 2448 61 
Q 2172 -91 1784 -91 
Q 1150 -91 751 415 
Q 353 922 353 1747 
Q 353 2572 751 3078 
Q 1150 3584 1784 3584 
Q 2172 3584 2448 3432 
Q 2725 3281 2906 2969 
z
M 947 1747 
Q 947 1113 1208 752 
Q 1469 391 1925 391 
Q 2381 391 2643 752 
Q 2906 1113 2906 1747 
Q 2906 2381 2643 2742 
Q 2381 3103 1925 3103 
Q 1469 3103 1208 2742 
Q 947 2381 947 1747 
z
" id="DejaVuSans-64" transform="scale(0.015625)"/>
      </defs>
      <use xlink:href="#DejaVuSans-42"/>
      <use x="68.603516" xlink:href="#DejaVuSans-65"/>
      <use x="130.126953" xlink:href="#DejaVuSans-73"/>
      <use x="182.226562" xlink:href="#DejaVuSans-74"/>
      <use x="221.435547" xlink:href="#DejaVuSans-20"/>
      <use x="253.222656" xlink:href="#DejaVuSans-68"/>
      <use x="316.601562" xlink:href="#DejaVuSans-20"/>
      <use x="348.388672" xlink:href="#DejaVuSans-66"/>
      <use x="383.59375" xlink:href="#DejaVuSans-6f"/>
      <use x="444.775391" xlink:href="#DejaVuSans-75"/>
      <use x="508.154297" xlink:href="#DejaVuSans-6e"/>
      <use x="571.533203" xlink:href="#DejaVuSans-64"/>
     </g>
    </g>
   </g>
   <g id="line2d_13">
    <path clip-path="url(#pde44135209)" d="M 53.55 154.564778 
L 73.780625 124.678707 
L 94.01125 113.039131 
L 114.241875 108.126147 
L 134.4725 97.564172 
L 154.703125 91.531807 
L 174.93375 87.937969 
L 195.164375 80.049367 
L 215.395 76.817964 
L 235.625625 76.463311 
L 255.85625 73.913505 
L 276.086875 70.594992 
L 296.3175 66.523436 
L 316.548125 61.375441 
L 336.77875 59.71466 
L 357.009375 59.71466 
L 377.24 57.247621 
L 397.470625 57.247621 
L 417.70125 56.582103 
L 437.931875 55.916585 
L 458.1625 55.150449 
L 478.393125 52.51471 
L 498.62375 51.310624 
L 518.854375 50.645105 
L 539.085 49.979587 
L 559.315625 49.979587 
L 579.54625 49.979587 
L 599.776875 49.979587 
L 620.0075 49.314069 
L 640.238125 49.314069 
L 660.46875 49.314069 
L 680.699375 49.314069 
L 700.93 49.314069 
L 721.160625 49.314069 
L 741.39125 49.314069 
L 761.621875 49.139315 
L 781.8525 47.478534 
L 802.083125 47.478534 
L 822.31375 47.478534 
L 842.544375 47.478534 
L 862.775 47.478534 
L 883.005625 47.478534 
L 903.23625 47.478534 
L 923.466875 47.478534 
L 937 47.478534 
" style="fill:none;stroke:#0000ff;stroke-linecap:square;stroke-width:1.5;"/>
   </g>
   <g id="line2d_14">
    <path clip-path="url(#pde44135209)" d="M 53.55 393.085023 
L 74.193495 327.690629 
L 94.83699 276.834087 
L 115.480485 225.789416 
L 136.12398 210.71916 
L 156.767474 198.540473 
L 177.410969 192.917405 
L 198.054464 175.814742 
L 218.697959 175.814742 
L 239.341454 175.260259 
L 259.984949 157.557911 
L 280.628444 154.552601 
L 301.271939 152.288345 
L 321.915434 147.735705 
L 342.558929 147.735705 
L 363.202423 142.685906 
L 383.845918 142.685906 
L 404.489413 142.685906 
L 425.132908 140.619281 
L 445.776403 139.32803 
L 466.419898 138.64983 
L 487.063393 138.64983 
L 507.706888 136.357011 
L 528.350383 134.283721 
L 548.993878 134.283721 
L 569.637372 134.283721 
L 590.280867 134.283721 
L 610.924362 132.535003 
L 631.567857 132.535003 
L 652.211352 130.894988 
L 672.854847 130.894988 
L 693.498342 129.754867 
L 714.141837 127.556397 
L 734.785332 127.374808 
L 755.428827 121.903004 
L 776.072321 120.04967 
L 796.715816 119.585985 
L 817.359311 119.585985 
L 838.002806 118.966683 
L 858.646301 118.966683 
L 879.289796 118.966683 
L 899.933291 118.443348 
L 920.576786 118.443348 
L 937 118.443348 
" style="fill:none;stroke:#008000;stroke-linecap:square;stroke-width:1.5;"/>
   </g>
   <g id="line2d_15">
    <path clip-path="url(#pde44135209)" d="M 53.55 42.315407 
L 74.193495 42.315407 
L 94.83699 42.315407 
L 115.480485 42.315407 
L 136.12398 42.315407 
L 156.767474 42.315407 
L 177.410969 42.315407 
L 198.054464 42.315407 
L 218.697959 42.315407 
L 239.341454 42.315407 
L 259.984949 42.315407 
L 280.628444 42.315407 
L 301.271939 42.315407 
L 321.915434 42.315407 
L 342.558929 42.315407 
L 363.202423 42.315407 
L 383.845918 42.315407 
L 404.489413 42.315407 
L 425.132908 42.315407 
L 445.776403 42.315407 
L 466.419898 42.315407 
L 487.063393 42.315407 
L 507.706888 42.315407 
L 528.350383 42.315407 
L 548.993878 42.315407 
L 569.637372 42.315407 
L 590.280867 42.315407 
L 610.924362 42.315407 
L 631.567857 42.315407 
L 652.211352 42.315407 
L 672.854847 42.315407 
L 693.498342 42.315407 
L 714.141837 42.315407 
L 734.785332 42.315407 
L 755.428827 42.315407 
L 776.072321 42.315407 
L 796.715816 42.315407 
L 817.359311 42.315407 
L 838.002806 42.315407 
L 858.646301 42.315407 
L 879.289796 42.315407 
L 899.933291 42.315407 
L 920.576786 42.315407 
L 937 42.315407 
" style="fill:none;stroke:#ff0000;stroke-dasharray:5.55,2.4;stroke-dashoffset:0;stroke-width:1.5;"/>
   </g>
   <g id="patch_3">
    <path d="M 53.55 526.059375 
L 53.55 10.8 
" style="fill:none;stroke:#000000;stroke-linecap:square;stroke-linejoin:miter;stroke-width:0.8;"/>
   </g>
   <g id="patch_4">
    <path d="M 660.46875 526.059375 
L 660.46875 10.8 
" style="fill:none;stroke:#000000;stroke-linecap:square;stroke-linejoin:miter;stroke-width:0.8;"/>
   </g>
   <g id="patch_5">
    <path d="M 53.55 526.059375 
L 660.46875 526.059375 
" style="fill:none;stroke:#000000;stroke-linecap:square;stroke-linejoin:miter;stroke-width:0.8;"/>
   </g>
   <g id="patch_6">
    <path d="M 53.55 10.8 
L 660.46875 10.8 
" style="fill:none;stroke:#000000;stroke-linecap:square;stroke-linejoin:miter;stroke-width:0.8;"/>
   </g>
   <g id="legend_1">
    <g id="patch_7">
     <path d="M 63.35 519.059375 
L 208.700625 519.059375 
Q 211.500625 519.059375 211.500625 516.259375 
L 211.500625 456.01125 
Q 211.500625 453.21125 208.700625 453.21125 
L 63.35 453.21125 
Q 60.55 453.21125 60.55 456.01125 
L 60.55 516.259375 
Q 60.55 519.059375 63.35 519.059375 
z
" style="fill:#ffffff;opacity:0.8;stroke:#cccccc;stroke-linejoin:miter;"/>
    </g>
    <g id="line2d_16">
     <path d="M 66.15 464.549063 
L 94.15 464.549063 
" style="fill:none;stroke:#0000ff;stroke-linecap:square;stroke-width:1.5;"/>
    </g>
    <g id="line2d_17"/>
    <g id="text_15">
     <!-- Mean BO -->
     <g transform="translate(105.35 469.449063)scale(0.14 -0.14)">
      <defs>
       <path d="M 628 4666 
L 1569 4666 
L 2759 1491 
L 3956 4666 
L 4897 4666 
L 4897 0 
L 4281 0 
L 4281 4097 
L 3078 897 
L 2444 897 
L 1241 4097 
L 1241 0 
L 628 0 
L 628 4666 
z
" id="DejaVuSans-4d" transform="scale(0.015625)"/>
       <path d="M 2522 4238 
Q 1834 4238 1429 3725 
Q 1025 3213 1025 2328 
Q 1025 1447 1429 934 
Q 1834 422 2522 422 
Q 3209 422 3611 934 
Q 4013 1447 4013 2328 
Q 4013 3213 3611 3725 
Q 3209 4238 2522 4238 
z
M 2522 4750 
Q 3503 4750 4090 4092 
Q 4678 3434 4678 2328 
Q 4678 1225 4090 567 
Q 3503 -91 2522 -91 
Q 1538 -91 948 565 
Q 359 1222 359 2328 
Q 359 3434 948 4092 
Q 1538 4750 2522 4750 
z
" id="DejaVuSans-4f" transform="scale(0.015625)"/>
      </defs>
      <use xlink:href="#DejaVuSans-4d"/>
      <use x="86.279297" xlink:href="#DejaVuSans-65"/>
      <use x="147.802734" xlink:href="#DejaVuSans-61"/>
      <use x="209.082031" xlink:href="#DejaVuSans-6e"/>
      <use x="272.460938" xlink:href="#DejaVuSans-20"/>
      <use x="304.248047" xlink:href="#DejaVuSans-42"/>
      <use x="371.101562" xlink:href="#DejaVuSans-4f"/>
     </g>
    </g>
    <g id="line2d_18">
     <path d="M 66.15 485.098438 
L 94.15 485.098438 
" style="fill:none;stroke:#008000;stroke-linecap:square;stroke-width:1.5;"/>
    </g>
    <g id="line2d_19"/>
    <g id="text_16">
     <!-- Mean Random -->
     <g transform="translate(105.35 489.998438)scale(0.14 -0.14)">
      <defs>
       <path d="M 2841 2188 
Q 3044 2119 3236 1894 
Q 3428 1669 3622 1275 
L 4263 0 
L 3584 0 
L 2988 1197 
Q 2756 1666 2539 1819 
Q 2322 1972 1947 1972 
L 1259 1972 
L 1259 0 
L 628 0 
L 628 4666 
L 2053 4666 
Q 2853 4666 3247 4331 
Q 3641 3997 3641 3322 
Q 3641 2881 3436 2590 
Q 3231 2300 2841 2188 
z
M 1259 4147 
L 1259 2491 
L 2053 2491 
Q 2509 2491 2742 2702 
Q 2975 2913 2975 3322 
Q 2975 3731 2742 3939 
Q 2509 4147 2053 4147 
L 1259 4147 
z
" id="DejaVuSans-52" transform="scale(0.015625)"/>
       <path d="M 3328 2828 
Q 3544 3216 3844 3400 
Q 4144 3584 4550 3584 
Q 5097 3584 5394 3201 
Q 5691 2819 5691 2113 
L 5691 0 
L 5113 0 
L 5113 2094 
Q 5113 2597 4934 2840 
Q 4756 3084 4391 3084 
Q 3944 3084 3684 2787 
Q 3425 2491 3425 1978 
L 3425 0 
L 2847 0 
L 2847 2094 
Q 2847 2600 2669 2842 
Q 2491 3084 2119 3084 
Q 1678 3084 1418 2786 
Q 1159 2488 1159 1978 
L 1159 0 
L 581 0 
L 581 3500 
L 1159 3500 
L 1159 2956 
Q 1356 3278 1631 3431 
Q 1906 3584 2284 3584 
Q 2666 3584 2933 3390 
Q 3200 3197 3328 2828 
z
" id="DejaVuSans-6d" transform="scale(0.015625)"/>
      </defs>
      <use xlink:href="#DejaVuSans-4d"/>
      <use x="86.279297" xlink:href="#DejaVuSans-65"/>
      <use x="147.802734" xlink:href="#DejaVuSans-61"/>
      <use x="209.082031" xlink:href="#DejaVuSans-6e"/>
      <use x="272.460938" xlink:href="#DejaVuSans-20"/>
      <use x="304.248047" xlink:href="#DejaVuSans-52"/>
      <use x="371.480469" xlink:href="#DejaVuSans-61"/>
      <use x="432.759766" xlink:href="#DejaVuSans-6e"/>
      <use x="496.138672" xlink:href="#DejaVuSans-64"/>
      <use x="559.615234" xlink:href="#DejaVuSans-6f"/>
      <use x="620.796875" xlink:href="#DejaVuSans-6d"/>
     </g>
    </g>
    <g id="line2d_20">
     <path d="M 66.15 505.647813 
L 94.15 505.647813 
" style="fill:none;stroke:#ff0000;stroke-dasharray:5.55,2.4;stroke-dashoffset:0;stroke-width:1.5;"/>
    </g>
    <g id="line2d_21"/>
    <g id="text_17">
     <!-- max(h) -->
     <g transform="translate(105.35 510.547813)scale(0.14 -0.14)">
      <defs>
       <path d="M 3513 3500 
L 2247 1797 
L 3578 0 
L 2900 0 
L 1881 1375 
L 863 0 
L 184 0 
L 1544 1831 
L 300 3500 
L 978 3500 
L 1906 2253 
L 2834 3500 
L 3513 3500 
z
" id="DejaVuSans-78" transform="scale(0.015625)"/>
       <path d="M 1984 4856 
Q 1566 4138 1362 3434 
Q 1159 2731 1159 2009 
Q 1159 1288 1364 580 
Q 1569 -128 1984 -844 
L 1484 -844 
Q 1016 -109 783 600 
Q 550 1309 550 2009 
Q 550 2706 781 3412 
Q 1013 4119 1484 4856 
L 1984 4856 
z
" id="DejaVuSans-28" transform="scale(0.015625)"/>
       <path d="M 513 4856 
L 1013 4856 
Q 1481 4119 1714 3412 
Q 1947 2706 1947 2009 
Q 1947 1309 1714 600 
Q 1481 -109 1013 -844 
L 513 -844 
Q 928 -128 1133 580 
Q 1338 1288 1338 2009 
Q 1338 2731 1133 3434 
Q 928 4138 513 4856 
z
" id="DejaVuSans-29" transform="scale(0.015625)"/>
      </defs>
      <use xlink:href="#DejaVuSans-6d"/>
      <use x="97.412109" xlink:href="#DejaVuSans-61"/>
      <use x="158.691406" xlink:href="#DejaVuSans-78"/>
      <use x="217.871094" xlink:href="#DejaVuSans-28"/>
      <use x="256.884766" xlink:href="#DejaVuSans-68"/>
      <use x="320.263672" xlink:href="#DejaVuSans-29"/>
     </g>
    </g>
   </g>
  </g>
  <g id="axes_2">
   <g id="patch_8">
    <path d="M 722.89375 526.059375 
L 925.2 526.059375 
L 925.2 10.8 
L 722.89375 10.8 
z
" style="fill:#ffffff;"/>
   </g>
   <g id="patch_9">
    <path clip-path="url(#pdbf456ff8b)" d="M 722.89375 502.638494 
L 731.897143 502.638494 
L 731.897143 487.024574 
L 722.89375 487.024574 
z
" style="fill:#00ffff;stroke:#000000;stroke-linejoin:miter;"/>
   </g>
   <g id="patch_10">
    <path clip-path="url(#pdbf456ff8b)" d="M 722.89375 487.024574 
L 739.099858 487.024574 
L 739.099858 471.410653 
L 722.89375 471.410653 
z
" style="fill:#00ffff;stroke:#000000;stroke-linejoin:miter;"/>
   </g>
   <g id="patch_11">
    <path clip-path="url(#pdbf456ff8b)" d="M 722.89375 471.410653 
L 762.508681 471.410653 
L 762.508681 455.796733 
L 722.89375 455.796733 
z
" style="fill:#00ffff;stroke:#000000;stroke-linejoin:miter;"/>
   </g>
   <g id="patch_12">
    <path clip-path="url(#pdbf456ff8b)" d="M 722.89375 455.796733 
L 793.120219 455.796733 
L 793.120219 440.182812 
L 722.89375 440.182812 
z
" style="fill:#00ffff;stroke:#000000;stroke-linejoin:miter;"/>
   </g>
   <g id="patch_13">
    <path clip-path="url(#pdbf456ff8b)" d="M 722.89375 440.182812 
L 843.539222 440.182812 
L 843.539222 424.568892 
L 722.89375 424.568892 
z
" style="fill:#00ffff;stroke:#000000;stroke-linejoin:miter;"/>
   </g>
   <g id="patch_14">
    <path clip-path="url(#pdbf456ff8b)" d="M 722.89375 424.568892 
L 884.954831 424.568892 
L 884.954831 408.954972 
L 722.89375 408.954972 
z
" style="fill:#00ffff;stroke:#000000;stroke-linejoin:miter;"/>
   </g>
   <g id="patch_15">
    <path clip-path="url(#pdbf456ff8b)" d="M 722.89375 408.954972 
L 890.356867 408.954972 
L 890.356867 393.341051 
L 722.89375 393.341051 
z
" style="fill:#00ffff;stroke:#000000;stroke-linejoin:miter;"/>
   </g>
   <g id="patch_16">
    <path clip-path="url(#pdbf456ff8b)" d="M 722.89375 393.341051 
L 915.566369 393.341051 
L 915.566369 377.727131 
L 722.89375 377.727131 
z
" style="fill:#00ffff;stroke:#000000;stroke-linejoin:miter;"/>
   </g>
   <g id="patch_17">
    <path clip-path="url(#pdbf456ff8b)" d="M 722.89375 377.727131 
L 872.350081 377.727131 
L 872.350081 362.11321 
L 722.89375 362.11321 
z
" style="fill:#00ffff;stroke:#000000;stroke-linejoin:miter;"/>
   </g>
   <g id="patch_18">
    <path clip-path="url(#pdbf456ff8b)" d="M 722.89375 362.11321 
L 872.350081 362.11321 
L 872.350081 346.49929 
L 722.89375 346.49929 
z
" style="fill:#00ffff;stroke:#000000;stroke-linejoin:miter;"/>
   </g>
   <g id="patch_19">
    <path clip-path="url(#pdbf456ff8b)" d="M 722.89375 346.49929 
L 868.748723 346.49929 
L 868.748723 330.885369 
L 722.89375 330.885369 
z
" style="fill:#00ffff;stroke:#000000;stroke-linejoin:miter;"/>
   </g>
   <g id="patch_20">
    <path clip-path="url(#pdbf456ff8b)" d="M 722.89375 330.885369 
L 872.350081 330.885369 
L 872.350081 315.271449 
L 722.89375 315.271449 
z
" style="fill:#00ffff;stroke:#000000;stroke-linejoin:miter;"/>
   </g>
   <g id="patch_21">
    <path clip-path="url(#pdbf456ff8b)" d="M 722.89375 315.271449 
L 866.948045 315.271449 
L 866.948045 299.657528 
L 722.89375 299.657528 
z
" style="fill:#00ffff;stroke:#000000;stroke-linejoin:miter;"/>
   </g>
   <g id="patch_22">
    <path clip-path="url(#pdbf456ff8b)" d="M 722.89375 299.657528 
L 859.74533 299.657528 
L 859.74533 284.043608 
L 722.89375 284.043608 
z
" style="fill:#00ffff;stroke:#000000;stroke-linejoin:miter;"/>
   </g>
   <g id="patch_23">
    <path clip-path="url(#pdbf456ff8b)" d="M 722.89375 284.043608 
L 850.741936 284.043608 
L 850.741936 268.429687 
L 722.89375 268.429687 
z
" style="fill:#00ffff;stroke:#000000;stroke-linejoin:miter;"/>
   </g>
   <g id="patch_24">
    <path clip-path="url(#pdbf456ff8b)" d="M 722.89375 268.429687 
L 818.32972 268.429687 
L 818.32972 252.815767 
L 722.89375 252.815767 
z
" style="fill:#00ffff;stroke:#000000;stroke-linejoin:miter;"/>
   </g>
   <g id="patch_25">
    <path clip-path="url(#pdbf456ff8b)" d="M 722.89375 252.815767 
L 811.127005 252.815767 
L 811.127005 237.201847 
L 722.89375 237.201847 
z
" style="fill:#00ffff;stroke:#000000;stroke-linejoin:miter;"/>
   </g>
   <g id="patch_26">
    <path clip-path="url(#pdbf456ff8b)" d="M 722.89375 237.201847 
L 807.525648 237.201847 
L 807.525648 221.587926 
L 722.89375 221.587926 
z
" style="fill:#00ffff;stroke:#000000;stroke-linejoin:miter;"/>
   </g>
   <g id="patch_27">
    <path clip-path="url(#pdbf456ff8b)" d="M 722.89375 221.587926 
L 805.724969 221.587926 
L 805.724969 205.974006 
L 722.89375 205.974006 
z
" style="fill:#00ffff;stroke:#000000;stroke-linejoin:miter;"/>
   </g>
   <g id="patch_28">
    <path clip-path="url(#pdbf456ff8b)" d="M 722.89375 205.974006 
L 785.917504 205.974006 
L 785.917504 190.360085 
L 722.89375 190.360085 
z
" style="fill:#00ffff;stroke:#000000;stroke-linejoin:miter;"/>
   </g>
   <g id="patch_29">
    <path clip-path="url(#pdbf456ff8b)" d="M 722.89375 190.360085 
L 780.515468 190.360085 
L 780.515468 174.746165 
L 722.89375 174.746165 
z
" style="fill:#00ffff;stroke:#000000;stroke-linejoin:miter;"/>
   </g>
   <g id="patch_30">
    <path clip-path="url(#pdbf456ff8b)" d="M 722.89375 174.746165 
L 798.522255 174.746165 
L 798.522255 159.132244 
L 722.89375 159.132244 
z
" style="fill:#00ffff;stroke:#000000;stroke-linejoin:miter;"/>
   </g>
   <g id="patch_31">
    <path clip-path="url(#pdbf456ff8b)" d="M 722.89375 159.132244 
L 791.31954 159.132244 
L 791.31954 143.518324 
L 722.89375 143.518324 
z
" style="fill:#00ffff;stroke:#000000;stroke-linejoin:miter;"/>
   </g>
   <g id="patch_32">
    <path clip-path="url(#pdbf456ff8b)" d="M 722.89375 143.518324 
L 776.91411 143.518324 
L 776.91411 127.904403 
L 722.89375 127.904403 
z
" style="fill:#00ffff;stroke:#000000;stroke-linejoin:miter;"/>
   </g>
   <g id="patch_33">
    <path clip-path="url(#pdbf456ff8b)" d="M 722.89375 127.904403 
L 767.910717 127.904403 
L 767.910717 112.290483 
L 722.89375 112.290483 
z
" style="fill:#00ffff;stroke:#000000;stroke-linejoin:miter;"/>
   </g>
   <g id="patch_34">
    <path clip-path="url(#pdbf456ff8b)" d="M 722.89375 112.290483 
L 773.312753 112.290483 
L 773.312753 96.676562 
L 722.89375 96.676562 
z
" style="fill:#00ffff;stroke:#000000;stroke-linejoin:miter;"/>
   </g>
   <g id="patch_35">
    <path clip-path="url(#pdbf456ff8b)" d="M 722.89375 96.676562 
L 746.302573 96.676562 
L 746.302573 81.062642 
L 722.89375 81.062642 
z
" style="fill:#00ffff;stroke:#000000;stroke-linejoin:miter;"/>
   </g>
   <g id="patch_36">
    <path clip-path="url(#pdbf456ff8b)" d="M 722.89375 81.062642 
L 737.299179 81.062642 
L 737.299179 65.448722 
L 722.89375 65.448722 
z
" style="fill:#00ffff;stroke:#000000;stroke-linejoin:miter;"/>
   </g>
   <g id="patch_37">
    <path clip-path="url(#pdbf456ff8b)" d="M 722.89375 65.448722 
L 726.495107 65.448722 
L 726.495107 49.834801 
L 722.89375 49.834801 
z
" style="fill:#00ffff;stroke:#000000;stroke-linejoin:miter;"/>
   </g>
   <g id="patch_38">
    <path clip-path="url(#pdbf456ff8b)" d="M 722.89375 49.834801 
L 726.495107 49.834801 
L 726.495107 34.220881 
L 722.89375 34.220881 
z
" style="fill:#00ffff;stroke:#000000;stroke-linejoin:miter;"/>
   </g>
   <g id="matplotlib.axis_3">
    <g id="xtick_8">
     <g id="line2d_22">
      <g>
       <use style="stroke:#000000;stroke-width:0.8;" x="722.89375" xlink:href="#m94ae486af5" y="526.059375"/>
      </g>
     </g>
     <g id="text_18">
      <!-- 0 -->
      <g transform="translate(718.44 543.697188)scale(0.14 -0.14)">
       <use xlink:href="#DejaVuSans-30"/>
      </g>
     </g>
    </g>
    <g id="xtick_9">
     <g id="line2d_23">
      <g>
       <use style="stroke:#000000;stroke-width:0.8;" x="812.927684" xlink:href="#m94ae486af5" y="526.059375"/>
      </g>
     </g>
     <g id="text_19">
      <!-- 50 -->
      <g transform="translate(804.020184 543.697188)scale(0.14 -0.14)">
       <use xlink:href="#DejaVuSans-35"/>
       <use x="63.623047" xlink:href="#DejaVuSans-30"/>
      </g>
     </g>
    </g>
    <g id="xtick_10">
     <g id="line2d_24">
      <g>
       <use style="stroke:#000000;stroke-width:0.8;" x="902.961618" xlink:href="#m94ae486af5" y="526.059375"/>
      </g>
     </g>
     <g id="text_20">
      <!-- 100 -->
      <g transform="translate(889.600368 543.697188)scale(0.14 -0.14)">
       <use xlink:href="#DejaVuSans-31"/>
       <use x="63.623047" xlink:href="#DejaVuSans-30"/>
       <use x="127.246094" xlink:href="#DejaVuSans-30"/>
      </g>
     </g>
    </g>
   </g>
   <g id="matplotlib.axis_4">
    <g id="ytick_6">
     <g id="line2d_25">
      <g>
       <use style="stroke:#000000;stroke-width:0.8;" x="722.89375" xlink:href="#mc6317ef87e" y="494.184494"/>
      </g>
     </g>
     <g id="text_21">
      <!-- 40 -->
      <g transform="translate(698.07875 499.5034)scale(0.14 -0.14)">
       <defs>
        <path d="M 2419 4116 
L 825 1625 
L 2419 1625 
L 2419 4116 
z
M 2253 4666 
L 3047 4666 
L 3047 1625 
L 3713 1625 
L 3713 1100 
L 3047 1100 
L 3047 0 
L 2419 0 
L 2419 1100 
L 313 1100 
L 313 1709 
L 2253 4666 
z
" id="DejaVuSans-34" transform="scale(0.015625)"/>
       </defs>
       <use xlink:href="#DejaVuSans-34"/>
       <use x="63.623047" xlink:href="#DejaVuSans-30"/>
      </g>
     </g>
    </g>
    <g id="ytick_7">
     <g id="line2d_26">
      <g>
       <use style="stroke:#000000;stroke-width:0.8;" x="722.89375" xlink:href="#mc6317ef87e" y="404.976466"/>
      </g>
     </g>
     <g id="text_22">
      <!-- 50 -->
      <g transform="translate(698.07875 410.295373)scale(0.14 -0.14)">
       <use xlink:href="#DejaVuSans-35"/>
       <use x="63.623047" xlink:href="#DejaVuSans-30"/>
      </g>
     </g>
    </g>
    <g id="ytick_8">
     <g id="line2d_27">
      <g>
       <use style="stroke:#000000;stroke-width:0.8;" x="722.89375" xlink:href="#mc6317ef87e" y="315.768439"/>
      </g>
     </g>
     <g id="text_23">
      <!-- 60 -->
      <g transform="translate(698.07875 321.087345)scale(0.14 -0.14)">
       <use xlink:href="#DejaVuSans-36"/>
       <use x="63.623047" xlink:href="#DejaVuSans-30"/>
      </g>
     </g>
    </g>
    <g id="ytick_9">
     <g id="line2d_28">
      <g>
       <use style="stroke:#000000;stroke-width:0.8;" x="722.89375" xlink:href="#mc6317ef87e" y="226.560412"/>
      </g>
     </g>
     <g id="text_24">
      <!-- 70 -->
      <g transform="translate(698.07875 231.879318)scale(0.14 -0.14)">
       <use xlink:href="#DejaVuSans-37"/>
       <use x="63.623047" xlink:href="#DejaVuSans-30"/>
      </g>
     </g>
    </g>
    <g id="ytick_10">
     <g id="line2d_29">
      <g>
       <use style="stroke:#000000;stroke-width:0.8;" x="722.89375" xlink:href="#mc6317ef87e" y="137.352385"/>
      </g>
     </g>
     <g id="text_25">
      <!-- 80 -->
      <g transform="translate(698.07875 142.671291)scale(0.14 -0.14)">
       <use xlink:href="#DejaVuSans-38"/>
       <use x="63.623047" xlink:href="#DejaVuSans-30"/>
      </g>
     </g>
    </g>
    <g id="ytick_11">
     <g id="line2d_30">
      <g>
       <use style="stroke:#000000;stroke-width:0.8;" x="722.89375" xlink:href="#mc6317ef87e" y="48.144357"/>
      </g>
     </g>
     <g id="text_26">
      <!-- 90 -->
      <g transform="translate(698.07875 53.463264)scale(0.14 -0.14)">
       <use xlink:href="#DejaVuSans-39"/>
       <use x="63.623047" xlink:href="#DejaVuSans-30"/>
      </g>
     </g>
    </g>
    <g id="text_27">
     <!-- Heat transfer coefficient -->
     <g transform="translate(691.167187 353.721406)rotate(-90)scale(0.14 -0.14)">
      <defs>
       <path d="M 628 4666 
L 1259 4666 
L 1259 2753 
L 3553 2753 
L 3553 4666 
L 4184 4666 
L 4184 0 
L 3553 0 
L 3553 2222 
L 1259 2222 
L 1259 0 
L 628 0 
L 628 4666 
z
" id="DejaVuSans-48" transform="scale(0.015625)"/>
       <path d="M 3122 3366 
L 3122 2828 
Q 2878 2963 2633 3030 
Q 2388 3097 2138 3097 
Q 1578 3097 1268 2742 
Q 959 2388 959 1747 
Q 959 1106 1268 751 
Q 1578 397 2138 397 
Q 2388 397 2633 464 
Q 2878 531 3122 666 
L 3122 134 
Q 2881 22 2623 -34 
Q 2366 -91 2075 -91 
Q 1284 -91 818 406 
Q 353 903 353 1747 
Q 353 2603 823 3093 
Q 1294 3584 2113 3584 
Q 2378 3584 2631 3529 
Q 2884 3475 3122 3366 
z
" id="DejaVuSans-63" transform="scale(0.015625)"/>
      </defs>
      <use xlink:href="#DejaVuSans-48"/>
      <use x="75.195312" xlink:href="#DejaVuSans-65"/>
      <use x="136.71875" xlink:href="#DejaVuSans-61"/>
      <use x="197.998047" xlink:href="#DejaVuSans-74"/>
      <use x="237.207031" xlink:href="#DejaVuSans-20"/>
      <use x="268.994141" xlink:href="#DejaVuSans-74"/>
      <use x="308.203125" xlink:href="#DejaVuSans-72"/>
      <use x="349.316406" xlink:href="#DejaVuSans-61"/>
      <use x="410.595703" xlink:href="#DejaVuSans-6e"/>
      <use x="473.974609" xlink:href="#DejaVuSans-73"/>
      <use x="526.074219" xlink:href="#DejaVuSans-66"/>
      <use x="561.279297" xlink:href="#DejaVuSans-65"/>
      <use x="622.802734" xlink:href="#DejaVuSans-72"/>
      <use x="663.916016" xlink:href="#DejaVuSans-20"/>
      <use x="695.703125" xlink:href="#DejaVuSans-63"/>
      <use x="750.683594" xlink:href="#DejaVuSans-6f"/>
      <use x="811.865234" xlink:href="#DejaVuSans-65"/>
      <use x="873.388672" xlink:href="#DejaVuSans-66"/>
      <use x="908.59375" xlink:href="#DejaVuSans-66"/>
      <use x="943.798828" xlink:href="#DejaVuSans-69"/>
      <use x="971.582031" xlink:href="#DejaVuSans-63"/>
      <use x="1026.5625" xlink:href="#DejaVuSans-69"/>
      <use x="1054.345703" xlink:href="#DejaVuSans-65"/>
      <use x="1115.869141" xlink:href="#DejaVuSans-6e"/>
      <use x="1179.248047" xlink:href="#DejaVuSans-74"/>
     </g>
    </g>
   </g>
   <g id="patch_39">
    <path d="M 722.89375 526.059375 
L 722.89375 10.8 
" style="fill:none;stroke:#000000;stroke-linecap:square;stroke-linejoin:miter;stroke-width:0.8;"/>
   </g>
   <g id="patch_40">
    <path d="M 925.2 526.059375 
L 925.2 10.8 
" style="fill:none;stroke:#000000;stroke-linecap:square;stroke-linejoin:miter;stroke-width:0.8;"/>
   </g>
   <g id="patch_41">
    <path d="M 722.89375 526.059375 
L 925.2 526.059375 
" style="fill:none;stroke:#000000;stroke-linecap:square;stroke-linejoin:miter;stroke-width:0.8;"/>
   </g>
   <g id="patch_42">
    <path d="M 722.89375 10.8 
L 925.2 10.8 
" style="fill:none;stroke:#000000;stroke-linecap:square;stroke-linejoin:miter;stroke-width:0.8;"/>
   </g>
  </g>
 </g>
 <defs>
  <clipPath id="pde44135209">
   <rect height="515.259375" width="606.91875" x="53.55" y="10.8"/>
  </clipPath>
  <clipPath id="pdbf456ff8b">
   <rect height="515.259375" width="202.30625" x="722.89375" y="10.8"/>
  </clipPath>
 </defs>
</svg>
